<svg width="75" height="75" viewBox="0 0 75 75" fill="none" xmlns="http://www.w3.org/2000/svg">
<path d="M71.5489 21.8563C70.8845 20.4225 69.6166 19.3582 68.0843 18.9729C65.1274 18.2303 62.4847 16.6958 60.3959 14.6064C58.3106 12.5207 56.7773 9.88288 56.0336 6.93179C55.6445 5.38996 54.5744 4.11396 53.1317 3.44616C48.3317 1.22366 42.9921 -0.0134789 37.3754 0.000110786C34.4852 0.00702482 31.6718 0.341283 28.97 0.96736C24.3635 2.03474 20.5551 5.31796 18.9038 9.74937C16.146 17.1495 11.3953 23.5786 5.3039 28.3836C1.65832 31.2592 -0.314055 35.7819 0.0408963 40.4119C1.05092 53.5905 9.00622 65.2414 20.906 71.2309C21.8493 71.7055 22.937 71.9425 24.093 71.8154C26.8172 71.516 28.9612 69.2391 29.0928 66.5012C29.2475 63.2683 26.6727 60.5987 23.4746 60.5987C22.8875 60.5987 22.3187 60.6836 21.7868 60.8505C21.2111 61.0312 20.5987 61.1287 19.9637 61.1287C18.2841 61.1287 16.7629 60.4478 15.6626 59.3468C14.5617 58.2458 13.8809 56.7247 13.8809 55.0449C13.8809 53.365 14.5617 51.8437 15.6626 50.7427C16.716 49.6889 18.1568 49.0142 19.7506 48.9579C22.0486 48.8771 23.8686 46.938 23.7845 44.6037C23.7139 42.6416 24.4884 40.8394 25.7859 39.5422C27.0241 38.3034 28.735 37.5373 30.6246 37.5373C32.5143 37.5373 34.2254 38.3034 35.464 39.5422C36.7022 40.781 37.4683 42.4918 37.4683 44.382C37.4683 46.2722 36.7024 47.9833 35.464 49.2218C34.2254 50.4606 32.5143 51.2267 30.6246 51.2267H30.329C28.0611 51.2267 26.1297 52.9902 26.0494 55.2568C25.9645 57.6364 27.8682 59.5919 30.2287 59.5919C31.3836 59.5919 32.4325 59.1275 33.1894 58.3703C34.0414 57.5182 35.2595 57.0321 36.5875 57.168C38.5229 57.3661 40.0889 58.9182 40.3022 60.8519C40.5807 63.3751 38.6131 65.5106 36.1463 65.5106C35.9863 65.5106 35.8285 65.5046 35.6731 65.4872C35.4993 65.4679 35.3229 65.4615 35.1436 65.4615C33.8282 65.4615 32.6366 65.9948 31.7743 66.8574C30.9116 67.72 30.3784 68.9116 30.3784 70.2274C30.3784 72.7367 32.3164 74.799 34.778 74.9797C34.8252 74.9833 34.8721 74.9866 34.9188 74.9897C35.8564 75.0543 36.7878 74.8128 37.5871 74.3195C39.8603 72.9172 42.3974 71.8569 45.1454 71.227C47.5688 70.6718 49.9903 70.4889 52.3508 70.6401C54.0943 70.7516 55.8335 70.3265 57.3151 69.4013C67.9479 62.7626 75.0178 50.9499 75 37.4856C74.9921 31.9134 73.7551 26.6189 71.5487 21.857M47.776 34.8998C43.5397 34.8998 40.1058 31.4654 40.1058 27.2288C40.1058 22.9921 43.5397 19.5578 47.776 19.5578C52.0123 19.5578 55.4459 22.9921 55.4459 27.2288C55.4459 31.4654 52.012 34.8998 47.776 34.8998Z" fill="white"/>
</svg>
