<svg width="71" height="71" viewBox="0 0 71 71" fill="none" xmlns="http://www.w3.org/2000/svg">
<g clip-path="url(#clip0_336_4253)">
<path fill-rule="evenodd" clip-rule="evenodd" d="M0 0H71V71H0V0ZM16.3837 16.2958L21.6026 5.46124H27.3026V21.845H23.3081V10.12L18.2041 20.0246H14.5633L9.46107 10.12V21.845H5.46656V5.46124H11.1666L16.3837 16.2958ZM47.3022 5.46124V8.72327H54.4367L54.4205 21.8414H58.415L58.433 8.72327H65.5693V5.46124H47.3022ZM60.7812 61.6699C61.2013 61.2659 61.4634 60.7291 61.564 60.0756L61.5604 60.0703H65.5585C65.449 61.4221 64.9876 62.5747 64.1887 63.4957C63.458 64.3377 62.4473 64.9534 61.187 65.3287C59.9626 65.6931 58.4474 65.8852 56.5336 65.8852C54.6198 65.8852 52.9574 65.6087 51.5947 65.0665C50.2106 64.5154 49.137 63.5962 48.4009 62.3341C47.6972 61.1241 47.3274 59.5101 47.3022 57.5299V57.3486L47.5159 57.3414L47.3022 57.3342V57.1511C47.3256 55.1727 47.6954 53.557 48.4009 52.3469C49.137 51.0848 50.2106 50.1657 51.5947 49.6145C52.9574 49.0705 54.6198 48.7959 56.5336 48.7959C58.354 48.7959 59.9626 48.988 61.187 49.3524C62.4473 49.7276 63.458 50.3434 64.1887 51.1854C64.9876 52.1064 65.449 53.2589 65.5585 54.6108H61.5622C61.4616 53.9573 61.1995 53.4205 60.7794 53.0148C60.3827 52.6342 59.8423 52.3613 59.178 52.2087C58.5192 52.0579 57.5928 51.9699 56.5336 51.9699C55.4744 51.9699 54.5372 52.1082 53.7473 52.3775C52.9807 52.6414 52.3739 53.0992 51.9448 53.7383C51.5122 54.3828 51.2931 55.3127 51.2931 56.5048V58.1798C51.2931 59.3719 51.5122 60.3019 51.9448 60.9464C52.3757 61.5873 52.9825 62.0451 53.7491 62.3072C54.539 62.5783 55.5139 62.7147 56.5354 62.7147C57.5569 62.7147 58.521 62.6285 59.1798 62.4759C59.8459 62.3233 60.3845 62.0523 60.7812 61.6699Z" fill="white"/>
</g>
<defs>
<clipPath id="clip0_336_4253">
<rect width="71" height="71" fill="white"/>
</clipPath>
</defs>
</svg>
