<svg width="122" height="60" viewBox="0 0 122 60" fill="none" xmlns="http://www.w3.org/2000/svg">
<path fill-rule="evenodd" clip-rule="evenodd" d="M0.323608 51.0758V59.7674H2.97468V57.08H4.63312C6.50138 57.08 7.90559 56.1641 7.90559 54.1626C7.90559 51.6245 6.01312 51.0758 4.10855 51.0758H0.323608ZM18.7278 25.1461H17.0935C17.3881 24.2665 17.5697 23.6693 17.5697 23.6693C17.7392 23.1326 17.7916 22.9349 17.9369 22.3377C18.0579 22.9107 18.0821 23.0559 18.2637 23.6572C18.2637 23.6572 18.5664 24.6458 18.7278 25.1461ZM19.2362 19.5777H16.6013L13.3893 28.2693H16.0888L16.5165 27.0386H19.3129L19.7406 28.2733H22.4401L19.2443 19.5817L19.2362 19.5777ZM46.4853 6.95182H44.0441C44.4113 6.25374 44.839 4.42583 44.839 3.40091V2.67056H46.4853V6.95584V6.95182ZM42.434 0.479492V1.26231C42.434 3.44934 42.0911 5.65655 41.397 6.95182H40.5053V11.2008H42.9344V9.17516H47.7564V11.2008H50.1734V6.95182H49.1001V0.483531H42.4381L42.434 0.479492ZM77.6848 6.17707C77.7695 6.35865 77.8058 6.50795 77.8058 6.64111C77.8058 7.06883 77.4266 7.27462 77.0755 7.27866C76.6599 7.27866 76.1837 7.10918 76.0869 7.02445V9.1106C76.1999 9.18324 76.5307 9.25587 76.8899 9.30832C78.4192 9.53832 79.4764 9.00165 80.1381 7.57725L83.4308 0.479492H80.5174L79.5813 3.01354C79.436 3.40495 79.315 3.84478 79.1818 4.51461C79.0608 3.8932 78.8751 3.34442 78.7541 3.01354L77.8139 0.479492H74.8965L77.6848 6.17707ZM106.153 21.8131H110.01V19.5777H103.481V28.2693H106.157V21.8131H106.153ZM118.189 56.6442H116.555C116.85 55.7646 117.031 55.1674 117.031 55.1674C117.201 54.6307 117.253 54.433 117.398 53.8358C117.519 54.4088 117.544 54.5541 117.725 55.1553C117.725 55.1553 118.028 56.1439 118.189 56.6442ZM118.698 51.0758H116.063L112.851 59.7674H115.55L115.978 58.5367H118.774L119.202 59.7714H121.902L118.706 51.0798L118.698 51.0758ZM2.97468 53.2104H4.20942C4.99224 53.2104 5.35539 53.513 5.35539 54.1384C5.35539 54.8486 4.90346 55.0544 4.25784 55.0544H2.97468V53.2104Z" fill="white"/>
</svg>
