<svg width="46" height="47" viewBox="0 0 46 47" fill="none" xmlns="http://www.w3.org/2000/svg">
<circle cx="23" cy="23.4824" r="23" fill="#FF0032"/>
<path d="M14.5002 36.2506H10.234V31.8858C10.234 31.4949 9.91678 31.1776 9.52591 31.1776C9.13505 31.1776 8.8178 31.4949 8.8178 31.8858V36.9587C8.8178 37.3496 9.13505 37.6668 9.52591 37.6668H14.5016C14.8925 37.6668 15.2098 37.3496 15.2098 36.9587L15.2098 36.9581C15.208 36.568 14.8928 36.2506 14.5002 36.2506ZM36.4753 31.1776C36.0845 31.1776 35.7672 31.4949 35.7672 31.8858V36.2506H31.4027C31.0118 36.2506 30.6946 36.5678 30.6946 36.9587C30.6946 37.3496 31.0118 37.6668 31.4027 37.6668H36.4753C36.8662 37.6668 37.1834 37.3496 37.1834 36.9587V31.8858C37.1834 31.4949 36.8662 31.1776 36.4753 31.1776ZM36.4753 9.29973H31.4027C31.0118 9.29973 30.6946 9.61701 30.6946 10.0079C30.6946 10.3987 31.0118 10.716 31.4027 10.716H35.7672V15.0808C35.7672 15.4717 36.0845 15.7889 36.4753 15.7889C36.8662 15.7889 37.1834 15.4717 37.1834 15.0808V10.0079C37.1834 9.61533 36.866 9.29973 36.4753 9.29973ZM9.52445 15.7889C9.91531 15.7889 10.2326 15.4717 10.2326 15.0808V10.716H14.5002C14.891 10.716 15.2083 10.3987 15.2083 10.0079C15.2083 9.61701 14.891 9.29973 14.5002 9.29973H9.52445C9.13359 9.29973 8.81634 9.61701 8.81634 10.0079V15.0808C8.81634 15.4717 9.13359 15.7889 9.52445 15.7889Z" fill="white" stroke="white" stroke-width="0.256"/>
<path d="M16.0831 28.1309V22.9075C17.1168 24.027 18.597 24.7281 20.241 24.7281H20.6235V28.1309C20.6235 29.3847 19.6071 30.4011 18.3533 30.4011C17.0995 30.4011 16.0831 29.3847 16.0831 28.1309Z" fill="white" stroke="white" stroke-width="1.5"/>
<path d="M29.6839 28.1309V22.9075C28.6502 24.027 27.17 24.7281 25.5261 24.7281H25.1435V28.1309C25.1435 29.3847 26.1599 30.4011 27.4137 30.4011C28.6675 30.4011 29.6839 29.3847 29.6839 28.1309Z" fill="white" stroke="white" stroke-width="1.5"/>
<mask id="path-5-inside-1_336_4285" fill="white">
<path fill-rule="evenodd" clip-rule="evenodd" d="M15.3333 23.1098C15.3333 24.2143 16.2287 25.1098 17.3333 25.1098L28.4343 25.1098C29.5388 25.1098 30.4343 24.2143 30.4343 23.1098V16.5391C30.4343 15.4345 29.5388 14.5391 28.4343 14.5391L17.3333 14.5391C16.2287 14.5391 15.3333 15.4345 15.3333 16.5391L15.3333 23.1098ZM17.8888 22.205C17.8888 22.9107 18.4608 23.4828 19.1665 23.4828H26.8332C27.5389 23.4828 28.111 22.9107 28.111 22.205C28.111 21.4993 27.5389 20.9272 26.8332 20.9272L19.1665 20.9272C18.4608 20.9272 17.8888 21.4993 17.8888 22.205Z"/>
</mask>
<path fill-rule="evenodd" clip-rule="evenodd" d="M15.3333 23.1098C15.3333 24.2143 16.2287 25.1098 17.3333 25.1098L28.4343 25.1098C29.5388 25.1098 30.4343 24.2143 30.4343 23.1098V16.5391C30.4343 15.4345 29.5388 14.5391 28.4343 14.5391L17.3333 14.5391C16.2287 14.5391 15.3333 15.4345 15.3333 16.5391L15.3333 23.1098ZM17.8888 22.205C17.8888 22.9107 18.4608 23.4828 19.1665 23.4828H26.8332C27.5389 23.4828 28.111 22.9107 28.111 22.205C28.111 21.4993 27.5389 20.9272 26.8332 20.9272L19.1665 20.9272C18.4608 20.9272 17.8888 21.4993 17.8888 22.205Z" fill="white"/>
<path d="M17.3333 25.1098V26.6098V25.1098ZM15.3333 23.1098H13.8333H15.3333ZM28.4343 25.1098V23.6098V25.1098ZM28.4343 14.5391V16.0391V14.5391ZM17.3333 14.5391V13.0391V14.5391ZM15.3333 16.5391L13.8333 16.5391L15.3333 16.5391ZM26.8332 20.9272V19.4272V20.9272ZM19.1665 20.9272V22.4272H19.1665L19.1665 20.9272ZM17.3333 23.6098C17.0571 23.6098 16.8333 23.3859 16.8333 23.1098H13.8333C13.8333 25.0428 15.4003 26.6098 17.3333 26.6098V23.6098ZM28.4343 23.6098L17.3333 23.6098L17.3333 26.6098L28.4343 26.6098V23.6098ZM28.9343 23.1098C28.9343 23.3859 28.7104 23.6098 28.4343 23.6098V26.6098C30.3673 26.6098 31.9343 25.0428 31.9343 23.1098H28.9343ZM28.9343 16.5391V23.1098H31.9343V16.5391H28.9343ZM28.4343 16.0391C28.7104 16.0391 28.9343 16.2629 28.9343 16.5391H31.9343C31.9343 14.6061 30.3673 13.0391 28.4343 13.0391V16.0391ZM17.3333 16.0391L28.4343 16.0391V13.0391L17.3333 13.0391L17.3333 16.0391ZM16.8333 16.5391C16.8333 16.2629 17.0571 16.0391 17.3333 16.0391L17.3333 13.0391C15.4003 13.0391 13.8333 14.6061 13.8333 16.5391L16.8333 16.5391ZM16.8333 23.1098L16.8333 16.5391L13.8333 16.5391L13.8333 23.1098H16.8333ZM19.1665 21.9828C19.2893 21.9828 19.3888 22.0822 19.3888 22.205H16.3888C16.3888 23.7391 17.6324 24.9828 19.1665 24.9828V21.9828ZM26.8332 21.9828H19.1665V24.9828H26.8332V21.9828ZM26.611 22.205C26.611 22.0822 26.7105 21.9828 26.8332 21.9828V24.9828C28.3673 24.9828 29.611 23.7391 29.611 22.205H26.611ZM26.8332 22.4272C26.7105 22.4272 26.611 22.3277 26.611 22.205H29.611C29.611 20.6709 28.3673 19.4272 26.8332 19.4272V22.4272ZM19.1665 22.4272L26.8332 22.4272V19.4272L19.1665 19.4272L19.1665 22.4272ZM19.3888 22.205C19.3888 22.3277 19.2893 22.4272 19.1665 22.4272V19.4272C17.6324 19.4272 16.3888 20.6709 16.3888 22.205H19.3888Z" fill="white" mask="url(#path-5-inside-1_336_4285)"/>
</svg>
