<svg width="46" height="47" viewBox="0 0 46 47" fill="none" xmlns="http://www.w3.org/2000/svg">
<circle cx="23" cy="23.4824" r="23" fill="#FF0032"/>
<path d="M27.7773 26.493L28.1932 27.9775C28.4267 28.8112 29.0919 29.4625 29.9433 29.6912L31.4595 30.0984L29.9433 30.5056C29.0919 30.7342 28.4268 31.3855 28.1932 32.2192L27.7773 33.7038L27.3615 32.2192C27.128 31.3856 26.4628 30.7343 25.6114 30.5056L24.0952 30.0984L25.6114 29.6912C26.4627 29.4625 27.1279 28.8112 27.3615 27.9775L27.7773 26.493ZM16.312 20.7476C15.8766 22.3019 14.6364 23.5164 13.049 23.9427L10.2222 24.7019L13.049 25.4611C14.6364 25.8875 15.8767 27.1018 16.312 28.6562L17.0874 31.4241L17.8628 28.6562C18.2982 27.1018 19.5384 25.8874 21.1258 25.4611L23.9527 24.7019L21.1258 23.9427C19.5384 23.5163 18.2982 22.3019 17.8628 20.7476L17.0874 17.9797L16.312 20.7476ZM29.5561 16.3281C29.2744 17.3338 28.4718 18.1196 27.4447 18.3955L25.6156 18.8867L27.4447 19.378C28.4718 19.6538 29.2744 20.4396 29.5561 21.4453L30.0578 23.2363L30.5595 21.4453C30.8412 20.4396 31.6437 19.6538 32.6708 19.378L34.4999 18.8867L32.6708 18.3955C31.6437 18.1196 30.8412 17.3338 30.5595 16.3281L30.0578 14.5371L29.5561 16.3281Z" fill="white" stroke="white"/>
</svg>
