<svg width="46" height="47" viewBox="0 0 46 47" fill="none" xmlns="http://www.w3.org/2000/svg">
<circle cx="23" cy="23.4824" r="23" fill="#FF0032"/>
<path d="M26.5352 31.9999H18.6215C17.7608 31.9692 16.959 31.5547 16.4362 30.8703C15.9134 30.1858 15.7244 29.3033 15.9212 28.4648L16.1171 27.4936C16.3522 26.179 17.4823 25.213 18.8175 25.1851H26.3308C27.6679 25.2123 28.8008 26.1777 29.0397 27.4936L29.2356 28.4648C29.4291 29.3029 29.2389 30.1837 28.7167 30.8673C28.1945 31.5509 27.3948 31.9662 26.5352 31.9999Z" fill="white"/>
<path d="M23 23.4814H22.1482C20.2663 23.4814 18.7408 21.9559 18.7408 20.074V17.8251C18.7408 16.2444 20.0223 14.9629 21.603 14.9629H23.5452C24.305 14.9606 25.0344 15.2615 25.5716 15.7987C26.1089 16.336 26.4097 17.0653 26.4075 17.8251V20.074C26.4075 21.9559 24.8819 23.4814 23 23.4814Z" fill="white"/>
<path d="M31.9445 18.5833H30.7775V17.4162C30.7775 17.0634 30.4914 16.7773 30.1386 16.7773C29.7857 16.7773 29.4997 17.0634 29.4997 17.4162V18.5833H28.3412C27.9883 18.5833 27.7023 18.8693 27.7023 19.2222C27.7023 19.575 27.9883 19.8611 28.3412 19.8611H29.4997V21.0281C29.4997 21.3809 29.7857 21.667 30.1386 21.667C30.4914 21.667 30.7775 21.3809 30.7775 21.0281V19.8611H31.9445C32.2973 19.8611 32.5834 19.575 32.5834 19.2222C32.5834 18.8693 32.2973 18.5833 31.9445 18.5833Z" fill="white"/>
</svg>
