<svg width="101" height="101" viewBox="0 0 101 101" fill="none" xmlns="http://www.w3.org/2000/svg">
<g clip-path="url(#clip0_1_1496)">
<path d="M101 0H0V101H101V0Z" fill="#FF0032"/>
<path d="M50.5 50.5H0V101H50.5V50.5Z" fill="#FF0032"/>
<path d="M30.7306 7.76881L23.3065 23.1814L15.885 7.76881H7.77649V31.0753H13.4588V14.3961L20.7169 28.4857H25.8961L33.1567 14.3961V31.0753H38.8391V7.76881H30.7306Z" fill="white"/>
<path d="M67.2891 7.76883V12.4092H77.4381L77.4151 31.0702H83.0974L83.123 12.4092H93.2746V7.76883H67.2891Z" fill="white"/>
<path d="M87.5769 85.4598C87.4339 86.3894 87.061 87.153 86.4634 87.7276C85.899 88.2716 85.1329 88.6572 84.1854 88.8743C83.2481 89.0914 81.8767 89.2139 80.4236 89.2139C78.9704 89.2139 77.5837 89.0199 76.46 88.6342C75.3695 88.2614 74.5063 87.6101 73.8933 86.6984C73.2779 85.7816 72.9663 84.4587 72.9663 82.7629V80.3801C72.9663 78.6844 73.2779 77.3615 73.8933 76.4447C74.5037 75.5355 75.3669 74.8842 76.4574 74.5088C77.5811 74.1258 78.9142 73.9291 80.421 73.9291C81.9278 73.9291 83.2456 74.0542 84.1828 74.2688C85.1278 74.4858 85.8965 74.874 86.4609 75.4154C87.0585 75.9926 87.4313 76.7562 87.5744 77.6858H93.2593C93.1035 75.7628 92.4471 74.1232 91.3107 72.8131C90.2712 71.6153 88.8334 70.7393 87.0406 70.2056C85.2989 69.6871 83.0106 69.4139 80.421 69.4139C77.6986 69.4139 75.3337 69.8046 73.3953 70.5784C71.4263 71.3625 69.8991 72.67 68.852 74.4654C67.8484 76.1867 67.3223 78.4852 67.2891 81.2995V81.56L67.593 81.5702L67.2891 81.5805V81.8384C67.3248 84.6553 67.8509 86.9512 68.852 88.6725C69.8991 90.4679 71.4263 91.7755 73.3953 92.5595C75.3337 93.3308 77.6986 93.7241 80.421 93.7241C83.1434 93.7241 85.2989 93.4508 87.0406 92.9324C88.8334 92.3986 90.2712 91.5226 91.3107 90.3249C92.4471 89.0147 93.1035 87.3752 93.2593 85.4521H87.5718L87.5769 85.4598Z" fill="white"/>
</g>
<defs>
<clipPath id="clip0_1_1496">
<rect width="101" height="101" fill="white"/>
</clipPath>
</defs>
</svg>
