<svg width="393" height="415" viewBox="0 0 393 415" fill="none" xmlns="http://www.w3.org/2000/svg">
<mask id="mask0_1_123" style="mask-type:luminance" maskUnits="userSpaceOnUse" x="-172" y="0" width="1129" height="636">
<path d="M956.544 0.335205H-171.456V635.335H956.544V0.335205Z" fill="white"/>
</mask>
<g mask="url(#mask0_1_123)">
<path d="M376.937 366.727L369.429 372.47L363.347 373.793" stroke="#CF4492"/>
</g>
<mask id="mask1_1_123" style="mask-type:luminance" maskUnits="userSpaceOnUse" x="-172" y="0" width="1129" height="636">
<path d="M956.544 0.335205H-171.456V635.335H956.544V0.335205Z" fill="white"/>
</mask>
<g mask="url(#mask1_1_123)">
<path d="M300.085 344.752L290.073 369.157L298.665 384.577L288.435 408.464L278.041 428.731L267.495 445.351L256.769 460.42L245.886 472.761L234.862 481.957L223.67 489.527L212.275 497.197L200.684 504.464L188.92 510.256L176.964 515.329L164.814 519.686L152.489 522.601L139.969 524.791L131.809 516.72L123.79 510.022L115.982 502.343L108.267 496.95" stroke="#CF4492" stroke-linecap="round" stroke-linejoin="round"/>
</g>
<mask id="mask2_1_123" style="mask-type:luminance" maskUnits="userSpaceOnUse" x="-172" y="0" width="1129" height="636">
<path d="M956.544 0.335205H-171.456V635.335H956.544V0.335205Z" fill="white"/>
</mask>
<g mask="url(#mask2_1_123)">
<path d="M378.057 367.24L370.437 343.587L362.994 315.289L355.641 301.845L348.44 285.03L341.378 267.615L348.761 247.216L356.02 226.719L363.148 208.837L356.182 194.636L349.289 189.353L342.504 183.644L335.795 181.512" stroke="#CF4492" stroke-linecap="round" stroke-linejoin="round"/>
</g>
<mask id="mask3_1_123" style="mask-type:luminance" maskUnits="userSpaceOnUse" x="-172" y="0" width="1129" height="636">
<path d="M956.544 0.335205H-171.456V635.335H956.544V0.335205Z" fill="white"/>
</mask>
<g mask="url(#mask3_1_123)">
<path d="M271.426 380.793L261.051 402.498L250.531 420.504L239.856 436.018L229.042 448.329L218.017 461.164L206.854 471.137L195.554 478.456L184.071 485.133L172.424 490.349L160.571 495.658L148.518 500.689L136.288 504.558L123.79 510.022L111.058 515.676L98.111 520.9L84.8121 529.081L76.8535 530.293L69.0765 530.907L61.4748 531.009L53.9974 531.704L51.7282 532.879L40.7399 538.567L33.5013 538.517L26.4231 538.061L19.4638 538.011L12.6579 537.556L5.98424 537.05L-7.10761 542.293L-20.3775 546.626L-33.828 550.096L-47.4671 552.811L-61.3045 554.927L-75.3472 556.499L-89.6055 557.667L-104.092 558.551L-118.819 559.292" stroke="#CF4492" stroke-linecap="round" stroke-linejoin="round"/>
</g>
<mask id="mask4_1_123" style="mask-type:luminance" maskUnits="userSpaceOnUse" x="-172" y="0" width="1129" height="636">
<path d="M956.544 0.335205H-171.456V635.335H956.544V0.335205Z" fill="white"/>
</mask>
<g mask="url(#mask4_1_123)">
<path d="M247.092 349.711L236.773 371.149L226.329 388.978L215.768 403.156L204.978 418.821L194.044 432.246L182.979 443.023L171.808 450.557L160.482 456.798L148.948 463.46L137.18 471.2L125.234 478.06L112.947 488.666L105.196 491.539L97.6202 493.455L90.2847 492.679L83.1686 489.836L76.1944 486.87L69.1417 489.182L68.7258 489.6L60.4262 497.935L56.8263 501.551L49.9807 502.839L43.2594 504.024L36.68 504.678L30.2284 505.066L23.9028 505.155L17.7226 504.493L11.5186 506.592L10.9158 506.875L10.5148 507.037L5.31015 508.885L2.9528 510.259L-0.371265 512.488L-3.06701 513.868L-12.4638 518.675L-14.9886 519.772L-24.7043 523.998L-25.4675 524.359L-37.1705 529.897L-42.9259 529.53L-48.5845 529.246L-54.1178 528.496L-59.556 527.763L-64.9008 527.059L-77.1325 530.887L-89.5241 534.291L-102.091 537.491L-114.838 540.502L-127.764 543.257L-132.677 542.589L-137.506 541.982L-142.256 541.468L-155.143 544.075L-159.739 543.595L-171.016 545.49" stroke="#CF4492" stroke-linecap="round" stroke-linejoin="round"/>
</g>
<mask id="mask5_1_123" style="mask-type:luminance" maskUnits="userSpaceOnUse" x="-172" y="0" width="1129" height="636">
<path d="M956.544 0.335205H-171.456V635.335H956.544V0.335205Z" fill="white"/>
</mask>
<g mask="url(#mask5_1_123)">
<path d="M387.374 470.371L376.566 489.413L365.378 489.797L354.425 489.791L343.692 490.72L333.173 492.122L322.876 491.889L312.798 490.437L302.921 489.174L293.241 488.04L283.779 484.843L274.552 478.624L265.541 470.981L256.769 460.42L248.231 447.48L239.856 436.018L231.669 424.198L223.618 414.387L215.768 403.156L208.022 394.589L200.364 388.884L192.808 384.987L185.29 384.959L177.982 381.994L170.91 375.37" stroke="#CF4492" stroke-linecap="round" stroke-linejoin="round"/>
</g>
<mask id="mask6_1_123" style="mask-type:luminance" maskUnits="userSpaceOnUse" x="-172" y="0" width="1129" height="636">
<path d="M956.544 0.335205H-171.456V635.335H956.544V0.335205Z" fill="white"/>
</mask>
<g mask="url(#mask6_1_123)">
<path d="M195.887 365.456L197.915 361.718L206.219 346.42L206.281 346.308L207.264 345.782L213.598 342.395" stroke="#CF4492" stroke-linecap="round" stroke-linejoin="round"/>
</g>
<mask id="mask7_1_123" style="mask-type:luminance" maskUnits="userSpaceOnUse" x="-172" y="0" width="1129" height="636">
<path d="M956.544 0.335205H-171.456V635.335H956.544V0.335205Z" fill="white"/>
</mask>
<g mask="url(#mask7_1_123)">
<path d="M592.439 341.927L604.688 358.868L597.575 381.675L590.258 403.122L582.741 423.259L575.013 441.626L567.059 457.595L558.912 472.487L550.559 485.654L541.989 496.488L533.204 504.896L524.21 511.103L515.009 514.849L505.69 522.21L496.17 528.069L486.437 531.481L476.498 532.592L466.348 530.554L456.001 525.872L445.46 518.736L443.613 517.174L439.506 512.247L433.14 505.311L429.146 501.323L421.126 493.315L410.49 491.11L399.666 489.72L388.64 503.913L377.371 516.511L365.864 526.912L354.188 525.935L345.578 534.671L342.432 537.864L340.677 539.55L330.423 549.394L318.169 559.146L306.775 559.212L295.649 558.153L284.788 555.809L272.389 562.102L259.769 566.654L249.259 562.229L239 557.344L228.938 554.472L219.097 551.717L209.478 548.699L200.075 545.468L190.913 540.815L181.983 534.955L173.273 528.331L164.814 519.686L156.584 509.782L148.519 500.689L140.601 492.649L132.84 485.168L125.234 478.06L117.574 477.233L115.098 480.095L105.196 491.539L102.694 493.992L92.6588 503.83L89.6837 506.441L82.2706 512.944L79.9309 514.996L77.2616 516.905L71.2858 521.177L67.0461 524.208L59.6375 525.39L52.4403 524.86L45.4467 522.858L32.569 530.435L19.4639 538.011L6.1923 544.227L-7.25293 549.219L-20.8603 552.779L-27.4133 551.499L-33.8279 550.096L-40.1086 548.556L-53.6763 551.42L-67.437 553.652L-81.4057 555.472L-87.3406 554.391L-93.1707 553.528L-98.8853 552.641L-104.488 551.736L-118.329 553.378L-123.744 552.577L-129.055 551.783L-134.267 551.009L-139.383 550.266L-144.405 549.558L-149.337 548.879L-154.179 548.204L-167.636 549.824L-171.016 549.364" stroke="#CF4492" stroke-linecap="round" stroke-linejoin="round"/>
</g>
<mask id="mask8_1_123" style="mask-type:luminance" maskUnits="userSpaceOnUse" x="-172" y="0" width="1129" height="636">
<path d="M956.544 0.335205H-171.456V635.335H956.544V0.335205Z" fill="white"/>
</mask>
<g mask="url(#mask8_1_123)">
<path d="M611.983 348.415L604.688 358.868L617.151 373.658L630.061 394.151L622.892 412.156L615.534 429.207L607.969 444.604L600.301 462.294L592.446 479.416L584.375 494.875L576.083 508.335L567.585 520.497L558.857 530.146L549.916 537.964L540.737 542.524L531.342 544.64L521.729 543.925L511.998 546.877L502.085 549.985L491.94 549.772L481.58 546.952L471.017 542.462L460.258 536.675L457.046 534.345L455.217 532.148L447.348 525.082L440.162 517.253L434.745 511.349L433.336 510.137L422.468 500.783L411.622 499.906L399.666 489.72L387.992 489.106L376.566 489.413L365.524 504.556L354.256 516.406L343.07 516.215L342.879 516.426L331.825 528.636L331.563 528.925L319.826 539.944L307.854 549.794L296.955 548.537L284.788 555.809L274.189 552.12L261.839 557.532L249.259 562.229L236.455 565.597L226.236 561.151L216.236 557.542L203.298 560.245L193.575 556.72L180.431 559.952L170.992 556.182L161.784 551.845L152.802 546.936L144.042 541.443L135.525 534.54L127.223 527.059L119.041 521.653L111.058 515.676L103.28 508.967L95.3942 509.719L83.2611 520.537L82.3182 521.378L69.0765 530.907L55.641 539.113L54.5112 539.653L42.0283 545.616L41.2043 545.917L28.2288 550.647L27.5864 550.832L14.2214 554.698L0.00149796 557.818L-14.4431 560.218L-21.5777 559.676L-28.5616 559.115L-35.3992 558.548L-42.0923 557.922L-48.6364 557.071L-55.0405 556.085L-61.3044 554.927L-67.437 553.652L-73.4683 552.763L-79.3841 551.898L-85.1781 550.926L-98.8853 552.641L-112.808 554.189L-118.329 553.378L-132.374 554.657L-137.703 553.923L-142.93 553.199L-148.058 552.494L-153.09 551.8L-158.028 551.126L-162.876 550.472L-167.636 549.824L-171.016 550.048" stroke="#CF4492" stroke-linecap="round" stroke-linejoin="round"/>
</g>
<mask id="mask9_1_123" style="mask-type:luminance" maskUnits="userSpaceOnUse" x="-172" y="0" width="1129" height="636">
<path d="M956.544 0.335205H-171.456V635.335H956.544V0.335205Z" fill="white"/>
</mask>
<g mask="url(#mask9_1_123)">
<path d="M239.168 346.654L229 361.434L218.594 378.651L208.022 394.588L197.245 410.981L186.338 424.565L175.311 435.358L164.165 443.501L152.92 448.592L141.437 455.257L129.689 463.938L117.574 477.233L109.967 478.998L102.62 477.428L95.4717 474.294" stroke="#CF4492" stroke-linecap="round" stroke-linejoin="round"/>
</g>
<mask id="mask10_1_123" style="mask-type:luminance" maskUnits="userSpaceOnUse" x="-172" y="0" width="1129" height="636">
<path d="M956.544 0.335205H-171.456V635.335H956.544V0.335205Z" fill="white"/>
</mask>
<g mask="url(#mask10_1_123)">
<path d="M142.549 393.644L150.689 378.184L159.779 357.708" stroke="#CF4492" stroke-linecap="round" stroke-linejoin="round"/>
</g>
<mask id="mask11_1_123" style="mask-type:luminance" maskUnits="userSpaceOnUse" x="-172" y="0" width="1129" height="636">
<path d="M956.544 0.335205H-171.456V635.335H956.544V0.335205Z" fill="white"/>
</mask>
<g mask="url(#mask11_1_123)">
<path d="M557.508 302.365L550.103 318.029L542.755 344.58L554.232 358.499L546.672 381.25L538.869 400.32L530.866 417.565L522.63 431.008L514.204 442.808L505.597 453.549L496.859 467.204L487.935 480.053L478.795 489.874L469.452 496.947L459.907 501.023L450.164 501.822L440.241 500.689L430.135 497.058L426.374 494.403L419.851 489.798L409.825 481.741L409.401 481.362L398.793 478.998L387.992 489.106L376.956 504.582L365.687 516.543L354.256 516.406L345.02 525.168L342.755 527.316L341.066 529.099L330.999 539.732L330.134 540.482L319.008 550.125L306.775 559.212L294.315 565.826L283.217 564.639L272.389 562.102L261.839 557.532L251.536 552.813L241.401 551.565L231.504 549.355L221.848 545.918L212.393 542.887L203.187 537.959L194.212 531.82L185.465 524.537L176.964 515.329L168.678 505.34L160.571 495.658L152.614 487.121L144.812 479.163L137.18 471.2L129.689 463.938L122.16 462.419L114.798 460.21L107.496 460.254L100.257 462.174L93.1734 463.309L93.021 463.477L82.7077 474.762L81.2598 476.346L74.3367 477.494L67.5467 478.312L60.8668 479.343L58.7157 481.051L49.0607 492.917L48.8272 493.186L36.68 504.678L36.3258 504.981L24.3681 515.207L11.9804 522.866L5.68559 522.12L-6.74444 527.636L-19.3243 532.125L-32.1359 537.114L-38.1346 536.462L-51.0731 541.166L-64.1667 544.871L-77.4216 547.683L-90.8559 549.882L-104.488 551.736L-109.982 550.83L-115.373 549.931L-120.661 549.028L-125.853 548.165L-130.95 547.327L-135.959 546.584L-140.879 545.856L-145.714 545.185L-150.469 544.607L-155.143 544.075L-168.197 546.302L-171.016 545.973" stroke="#CF4492" stroke-linecap="round" stroke-linejoin="round"/>
</g>
<mask id="mask12_1_123" style="mask-type:luminance" maskUnits="userSpaceOnUse" x="-172" y="0" width="1129" height="636">
<path d="M956.544 0.335205H-171.456V635.335H956.544V0.335205Z" fill="white"/>
</mask>
<g mask="url(#mask12_1_123)">
<path d="M117.804 417.003L118.317 416.376L118.611 416.019L121.81 412.113L127.733 404.884L128.654 403.76L131.682 401.499L134.653 399.185L134.848 398.956L138.552 396.342L139.149 395.921L142.279 394.155L146.121 392.863L153.205 389.775L157.382 385.875L161.075 381.932L163.643 380.028L170.489 374.975L174.46 371.392L179.91 366.803L181.038 365.729L181.201 365.573L188.542 363.18L195.887 365.456" stroke="#CF4492" stroke-linecap="round" stroke-linejoin="round"/>
</g>
<mask id="mask13_1_123" style="mask-type:luminance" maskUnits="userSpaceOnUse" x="-172" y="0" width="1129" height="636">
<path d="M956.544 0.335205H-171.456V635.335H956.544V0.335205Z" fill="white"/>
</mask>
<g mask="url(#mask13_1_123)">
<path d="M479.454 322.025L487.179 306.956L497.142 304.585L507.283 302.822L517.645 303.829L528.19 304.597L538.977 307.965L550.103 318.029L561.552 332.447L554.232 358.499L565.979 373.41L558.436 395.424L550.668 414.87L542.661 430.712L534.454 444.769L526.04 456.564L517.428 466.37L508.666 477.365L499.759 490.537L490.625 500.133L481.286 507.394L471.738 511.7L461.99 513.033L452.049 511.952L441.922 508.287L431.612 501.932L431.06 501.478L422.221 494.214L421.126 493.315L412.783 484.808L409.825 481.741L409.401 481.362L403.059 475.005L397.956 469.89L387.374 470.371L376.197 471.853L365.251 472.591L354.52 474.085L344.004 475.662L333.697 476.884L323.611 475.706L313.727 474.485L304.035 473.64L294.553 470.992L285.304 464.991L276.285 456.401L267.495 445.351L258.914 433.219L250.531 420.504L242.296 409.725L234.218 399.817L226.329 388.978L218.594 378.651L211.02 368.293L203.443 364.492L195.887 365.456L186.924 381.952L185.291 384.959L174.581 401.358L163.769 414.602L152.86 424.736L141.839 432.519L130.705 438.172L120.631 446.913L119.239 448.12L117.484 449.934L109.173 458.522L107.496 460.255L106.744 461.133L95.4717 474.294L88.331 474.555L87.6022 475.296L76.1944 486.87L75.2435 487.846L63.8252 499.563L62.8866 500.41L51.2903 510.883L50.0363 511.911L38.5686 521.319L31.7018 522.481L24.9903 522.968L18.41 523.245L11.9804 522.866L-0.524578 528.703L-13.1802 533.421L-26.0429 538.11L-32.1359 537.114L-45.1678 542.255L-58.3364 546.005L-71.6661 548.769L-85.178 550.926L-90.8559 549.882L-96.426 548.848L-101.895 547.886L-107.258 546.876L-112.52 545.854L-117.693 544.951L-122.774 544.097L-127.764 543.257L-140.879 545.856L-154.179 548.204L-158.934 547.53L-171.016 549.027" stroke="#CF4492" stroke-linecap="round" stroke-linejoin="round"/>
</g>
<mask id="mask14_1_123" style="mask-type:luminance" maskUnits="userSpaceOnUse" x="-172" y="0" width="1129" height="636">
<path d="M956.544 0.335205H-171.456V635.335H956.544V0.335205Z" fill="white"/>
</mask>
<g mask="url(#mask14_1_123)">
<path d="M185.185 362.56L192.601 347.471L201.453 326.693L201.857 325.669L209.685 305.832L210.193 304.549L211.37 301.998L218.705 286.118L225.955 272.282L227.029 270.233" stroke="#CF4492" stroke-linecap="round" stroke-linejoin="round"/>
</g>
<mask id="mask15_1_123" style="mask-type:luminance" maskUnits="userSpaceOnUse" x="-172" y="0" width="1129" height="636">
<path d="M956.544 0.335205H-171.456V635.335H956.544V0.335205Z" fill="white"/>
</mask>
<g mask="url(#mask15_1_123)">
<path d="M336.322 367.945L326.574 381.558L316.532 406.537L306.304 428.716L295.898 447.767L285.304 464.991L274.552 478.624L263.619 490.566L252.517 500.31L241.228 508.933L229.743 516.881L218.086 522.983L206.245 527.891L194.212 531.82L181.983 534.955L169.55 537.53L156.916 539.269L144.042 541.443L130.948 543.104L117.565 546.226L103.933 549.27L90.0476 552.18L75.8982 555.074L61.4598 558.392L46.7456 561.577L31.7573 564.421L23.6242 563.635L15.6674 562.968L0.593652 565.311L-14.7401 567L-30.3488 568.265L-46.2474 569.252" stroke="#CF4492" stroke-linecap="round" stroke-linejoin="round"/>
</g>
<mask id="mask16_1_123" style="mask-type:luminance" maskUnits="userSpaceOnUse" x="-172" y="0" width="1129" height="636">
<path d="M956.544 0.335205H-171.456V635.335H956.544V0.335205Z" fill="white"/>
</mask>
<g mask="url(#mask16_1_123)">
<path d="M164.64 377.859L164.799 377.528L167.398 372.08L171.495 363.49L180.466 342.975L189.276 323.097L197.928 303.944L206.426 285.574L214.645 273.622L222.712 263.295L227.16 259.788L230.581 257.092L233.541 254.728L236.834 251.321L244.599 245.591L248.159 242.466L250.931 240.032L256.852 234.063L263.76 233.2L270.113 241.508L276.601 248.031" stroke="#CF4492" stroke-linecap="round" stroke-linejoin="round"/>
</g>
<mask id="mask17_1_123" style="mask-type:luminance" maskUnits="userSpaceOnUse" x="-172" y="0" width="1129" height="636">
<path d="M956.544 0.335205H-171.456V635.335H956.544V0.335205Z" fill="white"/>
</mask>
<g mask="url(#mask17_1_123)">
<path d="M269.451 415.66L261.051 402.498L252.802 391.142L244.712 380.701L236.773 371.149L229 361.434L221.395 351.284L213.908 342.749" stroke="#CF4492" stroke-linecap="round" stroke-linejoin="round"/>
</g>
<mask id="mask18_1_123" style="mask-type:luminance" maskUnits="userSpaceOnUse" x="-172" y="0" width="1129" height="636">
<path d="M956.544 0.335205H-171.456V635.335H956.544V0.335205Z" fill="white"/>
</mask>
<g mask="url(#mask18_1_123)">
<path d="M308.714 357.982L317.538 370.75L326.574 381.558L335.833 388.837L345.3 393.347L354.972 395.111L364.826 399.65L374.867 410.433L378.265 413.766L385.134 420.504L393.358 435.536L395.635 439.698L405.457 442.614L406.967 444.969L416.248 459.441L425.94 460.349L435.458 458.02L444.797 452.571L453.947 443.991L462.898 431.507L471.657 416.984L480.306 408.023L488.774 397.022L497.049 383.22L505.105 365.214L512.942 343.589L520.588 320.576L528.19 304.597L535.592 285.806L542.825 266.126L550.279 264.639L557.807 271.872L565.203 277.392L572.583 286.205L579.864 294.5L586.965 298.985L589.269 302.749L597.777 316.653L598.048 317.094L604.314 325.266L609.266 331.721L613.198 335.422L617.063 339.059L620.024 341.845L620.597 342.384L627.471 342.232L639.03 353.471L650.782 363.582L662.708 372.044L671.239 379.017L674.921 382.025L681.552 379.819L691.839 388.742L694.016 390.631L706.656 399.59L719.743 413.381L733.103 427.053L746.665 438.85L760.457 449.687L766.67 444.55L772.741 438.86" stroke="#CF4492" stroke-linecap="round" stroke-linejoin="round"/>
</g>
<mask id="mask19_1_123" style="mask-type:luminance" maskUnits="userSpaceOnUse" x="-172" y="0" width="1129" height="636">
<path d="M956.544 0.335205H-171.456V635.335H956.544V0.335205Z" fill="white"/>
</mask>
<g mask="url(#mask19_1_123)">
<path d="M320.982 215.483L314.396 201.991L307.871 193.603L301.399 189.511" stroke="#CF4492" stroke-linecap="round" stroke-linejoin="round"/>
</g>
<mask id="mask20_1_123" style="mask-type:luminance" maskUnits="userSpaceOnUse" x="-172" y="0" width="1129" height="636">
<path d="M956.544 0.335205H-171.456V635.335H956.544V0.335205Z" fill="white"/>
</mask>
<g mask="url(#mask20_1_123)">
<path d="M355.346 359.212L347.87 346.419L340.534 332.681L333.342 317.628L326.314 299.06L319.467 275.836L312.752 253.621L306.157 232.867L299.656 215.217L293.226 201.781L286.771 198.318" stroke="#CF4492" stroke-linecap="round" stroke-linejoin="round"/>
</g>
<mask id="mask21_1_123" style="mask-type:luminance" maskUnits="userSpaceOnUse" x="-172" y="0" width="1129" height="636">
<path d="M956.544 0.335205H-171.456V635.335H956.544V0.335205Z" fill="white"/>
</mask>
<g mask="url(#mask21_1_123)">
<path d="M493.364 515.714L481.286 507.394L469.452 496.947L457.871 485.269L446.537 471.798L435.458 458.02L424.625 443.359L414.039 429.639L403.688 415.027L393.569 404.079L384.138 399.983L374.562 398.437L364.71 388.627L355.055 381.22L345.594 374.418L336.322 367.945" stroke="#CF4492" stroke-linecap="round" stroke-linejoin="round"/>
</g>
<mask id="mask22_1_123" style="mask-type:luminance" maskUnits="userSpaceOnUse" x="-172" y="0" width="1129" height="636">
<path d="M956.544 0.335205H-171.456V635.335H956.544V0.335205Z" fill="white"/>
</mask>
<g mask="url(#mask22_1_123)">
<path d="M109.135 428.783L110.243 427.278L110.724 426.624L111.334 425.795L113.469 423.405L115.732 421.487L124.784 412.203L135.565 401.718L142.56 400.615L149.621 401.245L156.564 409.942L163.769 414.602L171.205 415.964L178.725 419.279L186.338 424.565L194.044 432.246L201.873 441.479L209.852 451.582L218.017 461.164L226.384 469.747L234.862 481.957L243.564 492.628L252.517 500.31L261.691 506.565L271.086 511.447L280.714 514.153L290.556 516.077L300.611 517.446L311.85 505.116L322.876 491.889L333.697 476.884L344.314 459.449L344.347 459.384L354.723 439.835L364.917 419.294" stroke="#CF4492" stroke-linecap="round" stroke-linejoin="round"/>
</g>
<mask id="mask23_1_123" style="mask-type:luminance" maskUnits="userSpaceOnUse" x="-172" y="0" width="1129" height="636">
<path d="M956.544 0.335205H-171.456V635.335H956.544V0.335205Z" fill="white"/>
</mask>
<g mask="url(#mask23_1_123)">
<path d="M-130.278 557.719L-115.745 556.946L-101.438 555.883L-87.3407 554.391L-73.4684 552.763L-59.8011 550.732L-46.3233 548.083L-40.1087 548.556L-26.7207 544.847L-13.5293 540.631L-0.537018 536.048L12.3019 530.177L18.9166 530.548L25.6907 530.218L32.5689 530.435L39.5158 532.136L46.6574 532.571L53.9974 531.704L55.0584 531.095L64.3811 525.739L67.046 524.208L74.6706 521.239L82.3181 521.378L90.1515 520.705L103.28 508.967L115.982 502.343L128.429 496.593L140.601 492.649L152.614 487.121L164.444 480.747L176.049 475.123L187.451 469.68L198.716 462.03L209.852 451.582L220.848 438.502L231.669 424.198L242.296 409.725L252.802 391.142L263.166 369.128L273.378 343.595" stroke="#CF4492" stroke-linecap="round" stroke-linejoin="round"/>
</g>
<mask id="mask24_1_123" style="mask-type:luminance" maskUnits="userSpaceOnUse" x="-172" y="0" width="1129" height="636">
<path d="M956.544 0.335205H-171.456V635.335H956.544V0.335205Z" fill="white"/>
</mask>
<g mask="url(#mask24_1_123)">
<path d="M271.426 380.793L263.166 369.128L255.043 359.532L247.092 349.711" stroke="#CF4492" stroke-linecap="round" stroke-linejoin="round"/>
</g>
<mask id="mask25_1_123" style="mask-type:luminance" maskUnits="userSpaceOnUse" x="-172" y="0" width="1129" height="636">
<path d="M956.544 0.335205H-171.456V635.335H956.544V0.335205Z" fill="white"/>
</mask>
<g mask="url(#mask25_1_123)">
<path d="M272.693 217.033L274.155 214.784L277.024 210.344L280.256 205.397" stroke="#CF4492" stroke-linecap="round" stroke-linejoin="round"/>
</g>
<mask id="mask26_1_123" style="mask-type:luminance" maskUnits="userSpaceOnUse" x="-172" y="0" width="1129" height="636">
<path d="M956.544 0.335205H-171.456V635.335H956.544V0.335205Z" fill="white"/>
</mask>
<g mask="url(#mask26_1_123)">
<path d="M241.355 343.483L248.723 332.047L257.138 322.337L265.416 313.479L273.62 301.811L281.758 286.198L289.762 271.223L297.494 268.14L305.14 263.987" stroke="#CF4492" stroke-linecap="round" stroke-linejoin="round"/>
</g>
<mask id="mask27_1_123" style="mask-type:luminance" maskUnits="userSpaceOnUse" x="-172" y="0" width="1129" height="636">
<path d="M956.544 0.335205H-171.456V635.335H956.544V0.335205Z" fill="white"/>
</mask>
<g mask="url(#mask27_1_123)">
<path d="M624.394 362.348L617.15 373.658L610.046 395.224L602.734 415.285L595.258 435.433L587.548 453.153L579.64 469.666L571.511 484.103L563.184 497.3L554.661 509.485L545.895 518.241L536.924 525.202L527.747 530.244L518.334 531.397L508.791 535.204L496.17 528.069L483.816 519.91L474.073 522.335L464.13 522.229L453.991 519.569L445.026 511.189L441.922 508.287L433.089 499.873L430.135 497.058L427.979 494.735L418.619 484.655L417.45 483.156L408.728 471.975L407.366 470.231L406.875 469.485L397.821 455.727L396.38 453.536L386.206 448.09L375.512 436.852" stroke="#CF4492" stroke-linecap="round" stroke-linejoin="round"/>
</g>
<mask id="mask28_1_123" style="mask-type:luminance" maskUnits="userSpaceOnUse" x="-172" y="0" width="1129" height="636">
<path d="M956.544 0.335205H-171.456V635.335H956.544V0.335205Z" fill="white"/>
</mask>
<g mask="url(#mask28_1_123)">
<path d="M116.172 403.122L118.917 399.943L124.567 393.402L124.868 393.054L127.904 389.802L130.574 387.085L135.862 381.866L136.437 381.54L141.685 375.938L147.832 370.446L153.76 362.996L154.413 362.013L155.604 360.516" stroke="#CF4492" stroke-linecap="round" stroke-linejoin="round"/>
</g>
<mask id="mask29_1_123" style="mask-type:luminance" maskUnits="userSpaceOnUse" x="-172" y="0" width="1129" height="636">
<path d="M956.544 0.335205H-171.456V635.335H956.544V0.335205Z" fill="white"/>
</mask>
<g mask="url(#mask29_1_123)">
<path d="M359.815 371.628L355.346 359.212L362.95 350.118L370.437 343.587L377.828 333.23L370.358 305.443L363.039 280.433L355.818 267.005L348.761 247.216L341.807 232.417L334.989 216.4L328.26 204.554L321.612 196.401L315.04 191.139L307.87 193.603L300.602 197.086L293.226 201.781L285.676 212.117L277.963 226.143L270.113 241.508L262.095 259.619L253.98 275.882L245.783 289.791L237.515 300.919L229.132 311.771L220.445 330.757L214.474 341.926" stroke="#CF4492" stroke-linecap="round" stroke-linejoin="round"/>
</g>
<mask id="mask30_1_123" style="mask-type:luminance" maskUnits="userSpaceOnUse" x="-172" y="0" width="1129" height="636">
<path d="M956.544 0.335205H-171.456V635.335H956.544V0.335205Z" fill="white"/>
</mask>
<g mask="url(#mask30_1_123)">
<path d="M956.103 556.155L943.651 553.059L937.932 553.322L920.888 547.155L906.172 540.142L904.083 539.147L898.073 538.887L881.417 528.56L875.249 528.272L861.404 517.534L858.743 515.469L849.243 508.672L842.678 503.973L836.271 503.489L824.374 496.112L822.1 494.701L820.593 493.77L814.107 494.779L807.507 495.87L801.065 502.161L794.526 509.146L787.873 516.449L781.052 523.276L774.063 529.368L766.916 535.058L759.611 540.297L752.173 546.072L744.586 551.947L736.822 557.25L721.012 553.157L705.486 547.243L690.388 543.477L675.585 538.739L661.058 532.581L646.788 524.506L632.78 514.645L619.022 502.598L605.511 488.272L592.446 479.416L579.64 469.666L567.059 457.595L554.748 445.269L542.661 430.712L530.866 417.565L519.345 405.633L508.07 393.774L497.049 383.22L486.266 373.565L475.736 367.141L465.447 364.561L455.375 365.609L445.465 364.635L435.74 365.61L427.343 372.669L417.765 369.688L409.226 376.563L409.043 376.698L402.211 381.746L400.544 382.978L395.234 385.043L392.017 386.926L389.809 386.717L388.037 386.561L383.207 386.398L379.001 383.946L377.566 383.428L374.546 382.295L374.164 381.63L373.674 380.84L372.535 380.434L366.989 376.442L364.467 374.425L359.815 371.628L355.145 368.817L345.797 369.764L336.675 364.271L336.419 364.164L327.226 362.406L317.538 370.749L307.493 396.44L297.266 419.194L286.857 439.456L276.285 456.401L265.541 470.981L254.628 483.277L243.564 492.628L232.325 500.469L220.889 508.069L209.263 514.732L197.46 520.071L185.465 524.537L173.273 528.331L160.898 530.884L152.489 522.601L144.3 513.43L136.289 504.558L128.429 496.593L120.716 489.438L112.947 488.666L105.966 495.342L100.38 500.685L98.8249 502.019L89.1514 510.315L87.6181 511.63L84.2402 514.136L74.6707 521.239L71.6533 523.473L61.4749 531.009L48.1019 539.148L40.7399 538.567L27.2454 545.348L20.0852 545.019L6.48752 550.255L-0.460248 549.908L-7.25293 549.219L-13.8887 548.073L-20.3774 546.626L-26.7206 544.847L-33.0083 544.36L-46.3232 548.083L-52.3958 547.18L-58.3364 546.005L-64.1667 544.872L-69.8904 543.798L-75.5005 542.623L-81.0109 541.511L-86.4191 540.391L-91.734 539.355L-96.963 538.481L-102.091 537.491L-107.142 536.72L-112.113 536.074L-124.721 539.13L-137.506 541.982L-150.469 544.607L-163.605 546.889L-168.197 546.302L-171.016 546.656" stroke="#CF4492" stroke-linecap="round" stroke-linejoin="round"/>
</g>
<mask id="mask31_1_123" style="mask-type:luminance" maskUnits="userSpaceOnUse" x="-172" y="0" width="1129" height="636">
<path d="M956.544 0.335205H-171.456V635.335H956.544V0.335205Z" fill="white"/>
</mask>
<g mask="url(#mask31_1_123)">
<path d="M118.317 416.376L122.532 408.045L124.103 404.94L124.676 403.784L132.191 388.627L133.243 386.505L134.872 384.574" stroke="#CF4492" stroke-linecap="round" stroke-linejoin="round"/>
</g>
<mask id="mask32_1_123" style="mask-type:luminance" maskUnits="userSpaceOnUse" x="-172" y="0" width="1129" height="636">
<path d="M956.544 0.335205H-171.456V635.335H956.544V0.335205Z" fill="white"/>
</mask>
<g mask="url(#mask32_1_123)">
<path d="M407.285 370.492L400.574 359.94L392.767 341.692L385.111 321.515L377.617 295.017L370.287 266.934L377.424 253.111L384.457 235.51L377.239 212.542L370.15 194.378L363.179 180.088L370.057 169.469L376.831 162.093L383.514 156.528L390.111 146.78L396.618 133.849" stroke="#CF4492" stroke-linecap="round" stroke-linejoin="round"/>
</g>
<mask id="mask33_1_123" style="mask-type:luminance" maskUnits="userSpaceOnUse" x="-172" y="0" width="1129" height="636">
<path d="M956.544 0.335205H-171.456V635.335H956.544V0.335205Z" fill="white"/>
</mask>
<g mask="url(#mask33_1_123)">
<path d="M389.327 113.468L391.247 116.336L396.132 123.627L398.513 130.081L399.193 131.924L403.058 142.399L403.684 143.851L404.492 145.362L405.042 146.24L408.708 152.1" stroke="#CF4492" stroke-linecap="round" stroke-linejoin="round"/>
</g>
<mask id="mask34_1_123" style="mask-type:luminance" maskUnits="userSpaceOnUse" x="-172" y="0" width="1129" height="636">
<path d="M956.544 0.335205H-171.456V635.335H956.544V0.335205Z" fill="white"/>
</mask>
<g mask="url(#mask34_1_123)">
<path d="M275.089 277.518L268.553 267.56L262.095 259.619L255.751 251.263L249.492 244.011" stroke="#CF4492" stroke-linecap="round" stroke-linejoin="round"/>
</g>
<mask id="mask35_1_123" style="mask-type:luminance" maskUnits="userSpaceOnUse" x="-172" y="0" width="1129" height="636">
<path d="M956.544 0.335205H-171.456V635.335H956.544V0.335205Z" fill="white"/>
</mask>
<g mask="url(#mask35_1_123)">
<path d="M283.491 344.045L279.01 333.765L272.156 323.375L265.416 313.479L258.786 304.085L252.239 296.425L245.783 289.791L239.428 283.295L233.199 275.758L227.029 270.233" stroke="#CF4492" stroke-linecap="round" stroke-linejoin="round"/>
</g>
<mask id="mask36_1_123" style="mask-type:luminance" maskUnits="userSpaceOnUse" x="-172" y="0" width="1129" height="636">
<path d="M956.544 0.335205H-171.456V635.335H956.544V0.335205Z" fill="white"/>
</mask>
<g mask="url(#mask36_1_123)">
<path d="M336.396 364.102L332.435 353.639L325.125 341.771L317.985 325.937L311.008 307.515L304.171 288.795L297.494 268.14L290.958 247.027L284.467 232.15L277.964 226.143L271.511 223.428L265.072 225.596L261.182 229.83L257.35 234.002L250.931 240.032L248.328 242.661L247.672 243.324L243.117 247.925L236.834 251.321L233.541 254.728L228.893 260.545L222.712 263.295L216.609 266.078L210.577 269.194L208.93 271.971L208.609 272.567L206.373 277.28L201.19 288.032L200.303 289.87L194.142 298.621L190.102 306.117L185.696 315.047L185.46 315.442L183.394 318.604L174.544 340.345L165.577 361.13L156.523 379.987L153.328 386.178L153.158 386.507" stroke="#CF4492" stroke-linecap="round" stroke-linejoin="round"/>
</g>
<mask id="mask37_1_123" style="mask-type:luminance" maskUnits="userSpaceOnUse" x="-172" y="0" width="1129" height="636">
<path d="M956.544 0.335205H-171.456V635.335H956.544V0.335205Z" fill="white"/>
</mask>
<g mask="url(#mask37_1_123)">
<path d="M177.22 327.925L182.165 320.436L183.293 318.527L183.457 318.449L185.655 315.126L188.348 310.009L190.102 306.117L194.142 298.621L197.867 291.58L202.444 282.928L204.344 279.736L204.545 279.4L208.613 272.568L216.609 266.078L217.056 265.812L223.961 261.695L224.434 261.413L230.581 257.092" stroke="#CF4492" stroke-linecap="round" stroke-linejoin="round"/>
</g>
<mask id="mask38_1_123" style="mask-type:luminance" maskUnits="userSpaceOnUse" x="-172" y="0" width="1129" height="636">
<path d="M956.544 0.335205H-171.456V635.335H956.544V0.335205Z" fill="white"/>
</mask>
<g mask="url(#mask38_1_123)">
<path d="M231.336 346.235L221.395 351.284L211.019 368.293L200.364 388.884L189.611 405.308L178.725 419.279L167.725 430.341L156.643 437.69L145.446 442.719L138.038 439.424L131.317 443.845L126.617 446.937L119.239 448.12L111.969 449.964L102.066 460.288L100.257 462.174L99.5396 462.919L90.6284 472.171L88.331 474.555L81.2598 476.347L80.9267 476.699L72.7196 485.393L69.1417 489.182L62.2433 490.693L55.4806 491.834L48.8272 493.186L42.335 493.459L35.9168 494.596L32.5346 497.018L23.9028 505.156L11.7627 514.127L5.64767 513.166L-0.371265 512.488L-6.43515 513.376L-11.0696 514.633L-12.2955 515.055L-18.0818 515.8L-27.9244 519.058L-29.8958 519.71L-35.8169 521.896L-41.9178 524.148L-54.1178 528.496L-66.487 532.491L-79.0246 536.108L-91.734 539.355L-104.621 542.277L-117.693 544.951L-130.95 547.327L-144.405 549.558L-158.028 551.126L-171.016 551.966" stroke="#CF4492" stroke-linecap="round" stroke-linejoin="round"/>
</g>
<mask id="mask39_1_123" style="mask-type:luminance" maskUnits="userSpaceOnUse" x="-172" y="0" width="1129" height="636">
<path d="M956.544 0.335205H-171.456V635.335H956.544V0.335205Z" fill="white"/>
</mask>
<g mask="url(#mask39_1_123)">
<path d="M138.796 411.195L145.701 419.77L152.86 424.736L160.237 427.021L167.725 430.341L175.311 435.358L182.979 443.023L190.771 452.195L198.716 462.03L206.854 471.137L215.204 478.78L223.67 489.527L232.325 500.469L241.228 508.933L250.368 515.313L259.73 520.371L269.324 523.73L280.714 514.153L291.922 502.049L301.78 503.881L311.85 505.116L322.139 505.546L332.649 505.166L343.379 504.709L343.536 504.495L354.425 489.791L365.25 472.591L375.842 456.332L386.206 448.09" stroke="#CF4492" stroke-linecap="round" stroke-linejoin="round"/>
</g>
<mask id="mask40_1_123" style="mask-type:luminance" maskUnits="userSpaceOnUse" x="-172" y="0" width="1129" height="636">
<path d="M956.544 0.335205H-171.456V635.335H956.544V0.335205Z" fill="white"/>
</mask>
<g mask="url(#mask40_1_123)">
<path d="M48.4888 487.731L49.7807 486.298L50.8946 485.062L55.5485 479.903L65.0527 467.898L72.9364 456.677L74.4821 454.477L75.0064 453.885L78.4883 449.857L83.6586 444.131L84.7407 442.573L87.2488 439.287L92.7213 433.541L94.965 430.552L95.8674 429.35L101.714 421.563L107.317 414.379L109.515 411.585L116.172 403.122L121.798 397.488L127.464 392.657L133.243 386.505L139.051 381.597L142.281 376.629L150.603 366.01L151.458 365.02L154.454 361.477L159.123 355.226L162.694 350.837" stroke="#CF4492" stroke-linecap="round" stroke-linejoin="round"/>
</g>
<mask id="mask41_1_123" style="mask-type:luminance" maskUnits="userSpaceOnUse" x="-172" y="0" width="1129" height="636">
<path d="M956.544 0.335205H-171.456V635.335H956.544V0.335205Z" fill="white"/>
</mask>
<g mask="url(#mask41_1_123)">
<path d="M373.674 380.84L374.292 381.101L377.602 382.498L382.759 384.674L384.042 384.982L387.64 385.864L391.305 386.33L391.599 386.386L398.47 381.593L407.56 375.668L416.788 368.252L426.178 365.75L435.74 365.61L443.972 354.012L453.672 351.807L461.701 335.391L469.61 322.276L477.374 308.799L487.178 306.956L494.709 288.093L504.626 284.714L514.763 284.758L525.093 285.712L535.592 285.806L546.361 289.971L557.508 302.365L559.214 304.276L568.897 315.115L570.499 316.932L580.537 328.31L592.439 341.927L585.327 366.339L597.574 381.675L610.046 395.224L622.892 412.156L636.09 430.968L628.758 447.672L621.228 463.218L613.472 476.492L605.511 488.272L597.487 504.027L589.231 517.575L580.761 529.635L572.065 539.548L563.139 547.075L553.984 552.109L544.603 554.529L534.999 554.306L524.588 546.161L521.729 543.925L508.791 535.204L499.079 539.812L489.149 541.906L476.498 532.592L466.504 524.218L464.13 522.229L454.52 514.054L452.049 511.952L442.12 502.481L440.241 500.689L430.825 490.335L428.696 487.995L419.194 475.916L417.415 473.655L407.167 458.59L406.394 457.455L396.497 441.12L395.635 439.698L385.658 436.104L375.512 436.852L365.019 437.554L354.723 439.835L344.635 439.801L334.74 440.361L325.057 438.005L315.567 435.299L306.304 428.716L297.266 419.194L288.435 408.464L279.848 393.773L290.073 369.157L281.631 356.592L273.378 343.595L271.637 343.251L269.328 342.794L265.115 341.96L258.731 344.847L256.908 345.671L249.93 348.543L247.092 349.711L240.404 346.993L239.168 346.654L231.336 346.235L229.13 344.615L223.749 340.66L223.519 340.691L216.171 341.019L214.474 341.926L214.246 342.048L213.753 342.572L211.77 347.191L203.443 364.492L201.966 367.339L192.808 384.987L191.339 387.413L182.042 402.773L171.205 415.964L160.237 427.021L149.191 434.454L138.038 439.424L130.705 438.172L123.5 437.093L112.68 449.17L111.969 449.964L104.89 450.003L104.136 450.857L93.1734 463.309L86.2406 463.735L74.3367 477.494L62.2433 490.693L49.9807 502.839L49.3242 503.421L37.5507 513.852L36.9832 514.264L24.9902 522.968L23.931 523.57L12.302 530.177L5.82481 529.505L-6.91807 534.709L-19.8301 539.05L-26.043 538.11L-39.1516 543.397L-52.3959 547.18L-65.7979 549.855L-71.6661 548.769L-77.4216 547.683L-83.0684 546.594L-88.6079 545.5L-94.0434 544.392L-99.3782 543.288L-104.621 542.277L-109.772 541.321L-114.838 540.502L-119.817 539.718L-132.677 542.589L-145.714 545.185L-158.934 547.53L-163.605 546.889L-171.016 547.823" stroke="#CF4492" stroke-linecap="round" stroke-linejoin="round"/>
</g>
<mask id="mask42_1_123" style="mask-type:luminance" maskUnits="userSpaceOnUse" x="-172" y="0" width="1129" height="636">
<path d="M956.544 0.335205H-171.456V635.335H956.544V0.335205Z" fill="white"/>
</mask>
<g mask="url(#mask42_1_123)">
<path d="M384.15 193.307L390.943 186.205L397.649 184.308L404.261 173.484L410.762 155.383" stroke="#CF4492" stroke-linecap="round" stroke-linejoin="round"/>
</g>
<mask id="mask43_1_123" style="mask-type:luminance" maskUnits="userSpaceOnUse" x="-172" y="0" width="1129" height="636">
<path d="M956.544 0.335205H-171.456V635.335H956.544V0.335205Z" fill="white"/>
</mask>
<g mask="url(#mask43_1_123)">
<path d="M273.378 343.595L283.017 344.028L283.491 344.045L291.157 344.31L291.475 344.322" stroke="#CF4492" stroke-linecap="round" stroke-linejoin="round"/>
</g>
<mask id="mask44_1_123" style="mask-type:luminance" maskUnits="userSpaceOnUse" x="-172" y="0" width="1129" height="636">
<path d="M956.544 0.335205H-171.456V635.335H956.544V0.335205Z" fill="white"/>
</mask>
<g mask="url(#mask44_1_123)">
<path d="M363.02 143.36L369.262 137.327L369.644 136.966L369.678 136.925L376.403 135.499L383.209 139.24L390.111 146.78L397.126 160.426" stroke="#CF4492" stroke-linecap="round" stroke-linejoin="round"/>
</g>
<mask id="mask45_1_123" style="mask-type:luminance" maskUnits="userSpaceOnUse" x="-172" y="0" width="1129" height="636">
<path d="M956.544 0.335205H-171.456V635.335H956.544V0.335205Z" fill="white"/>
</mask>
<g mask="url(#mask45_1_123)">
<path d="M546.83 245.262L539.563 250.506L535.931 251.267L529.351 252.645L526.255 256.353L524.645 258.049L522.362 260.669L521.742 261.738L514.763 284.758L507.283 302.822L499.631 319.208L489.449 320.094L479.454 322.025L471.546 333.369L463.531 348.68L455.375 365.609L447.026 377.782L438.492 384.563L429.796 387.858L420.965 392.897L411.991 400.132L402.855 403.308L393.569 404.079L391.045 401.098L383.665 392.382L379.015 387.413L373.97 382.022L372.535 380.434L367.147 376.293L364.467 374.425L355.103 374.577L345.594 374.418L335.833 388.837L325.793 413.644L315.567 435.299L305.154 454.154L294.553 470.992L283.779 484.843L272.833 496.085L261.691 506.565L250.368 515.313L238.838 523.757L227.144 529.648L215.265 534.172L206.245 527.891L197.46 520.071L188.92 510.256L180.58 500.212L172.424 490.349L164.444 480.747L156.617 471.895L148.948 463.46L141.437 455.257L134.088 446.969L126.617 446.938L114.798 460.211L102.62 477.428L90.2847 492.679L77.8168 505.418L65.2122 515.856L58.1693 513.664L45.4467 522.858L38.5685 521.319L37.4961 522.06L25.6908 530.218L24.5425 530.864L12.658 537.556L-0.534295 543.489L-7.10754 542.293L-13.5292 540.631L-19.8301 539.05L-33.0084 544.36L-39.1516 543.398L-45.1678 542.255L-51.0731 541.166L-56.8761 540.224L-62.5664 539.185L-68.1535 538.167L-73.6375 537.121L-79.0246 536.108L-84.3241 535.252L-89.5241 534.291L-94.6494 533.615L-99.6905 533.004L-104.66 532.632L-109.566 532.593L-114.394 532.603L-118.991 532.04L-121.262 531.651L-123.524 531.896L-125.184 532.106L-129.943 532.688L-136.616 532.685L-140.358 531.472L-144.405 530.593L-148.369 529.419L-152.264 528.101L-163.324 530.945L-170.835 533.142L-171.016 533.821" stroke="#CF4492" stroke-linecap="round" stroke-linejoin="round"/>
</g>
<mask id="mask46_1_123" style="mask-type:luminance" maskUnits="userSpaceOnUse" x="-172" y="0" width="1129" height="636">
<path d="M956.544 0.335205H-171.456V635.335H956.544V0.335205Z" fill="white"/>
</mask>
<g mask="url(#mask46_1_123)">
<path d="M248.814 347.371L255.43 341.468L263.865 331.725L272.156 323.375L280.374 311.895L288.524 296.345L296.415 291.217L304.171 288.795L311.848 284.553L319.467 275.836L327.001 264.632L334.466 248.107L341.807 232.417L349.063 211.935L356.182 194.636L363.179 180.088" stroke="#CF4492" stroke-linecap="round" stroke-linejoin="round"/>
</g>
<mask id="mask47_1_123" style="mask-type:luminance" maskUnits="userSpaceOnUse" x="-172" y="0" width="1129" height="636">
<path d="M956.544 0.335205H-171.456V635.335H956.544V0.335205Z" fill="white"/>
</mask>
<g mask="url(#mask47_1_123)">
<path d="M374.292 381.101L370.549 373.08L362.95 350.118L355.485 332.28L362.994 315.289L370.358 305.443L377.617 295.017L384.776 279.35L391.822 261.589L398.749 240.267L391.376 215.137L384.15 193.307" stroke="#CF4492" stroke-linecap="round" stroke-linejoin="round"/>
</g>
<mask id="mask48_1_123" style="mask-type:luminance" maskUnits="userSpaceOnUse" x="-172" y="0" width="1129" height="636">
<path d="M956.544 0.335205H-171.456V635.335H956.544V0.335205Z" fill="white"/>
</mask>
<g mask="url(#mask48_1_123)">
<path d="M194.841 354.852L195.414 353.734L198.876 346.987L200.319 343.61L206.731 328.612L207.732 326.273L216.473 304.196" stroke="#CF4492" stroke-linecap="round" stroke-linejoin="round"/>
</g>
<mask id="mask49_1_123" style="mask-type:luminance" maskUnits="userSpaceOnUse" x="-172" y="0" width="1129" height="636">
<path d="M956.544 0.335205H-171.456V635.335H956.544V0.335205Z" fill="white"/>
</mask>
<g mask="url(#mask49_1_123)">
<path d="M397.94 380.693L393.265 373.461L385.468 355.472L377.828 333.23L385.111 321.515L392.285 305.704L399.341 285.884L406.274 263.813L413.08 240.298L405.559 219.74L398.184 202.263" stroke="#CF4492" stroke-linecap="round" stroke-linejoin="round"/>
</g>
<mask id="mask50_1_123" style="mask-type:luminance" maskUnits="userSpaceOnUse" x="-172" y="0" width="1129" height="636">
<path d="M956.544 0.335205H-171.456V635.335H956.544V0.335205Z" fill="white"/>
</mask>
<g mask="url(#mask50_1_123)">
<path d="M391.305 386.33L397.821 380.827L397.94 380.693L406.757 370.79" stroke="#CF4492" stroke-linecap="round" stroke-linejoin="round"/>
</g>
<mask id="mask51_1_123" style="mask-type:luminance" maskUnits="userSpaceOnUse" x="-172" y="0" width="1129" height="636">
<path d="M956.544 0.335205H-171.456V635.335H956.544V0.335205Z" fill="white"/>
</mask>
<g mask="url(#mask51_1_123)">
<path d="M248.852 348.354L248.966 347.819L242.863 343.623L241.355 343.483L237.454 343.122L233.361 342.744" stroke="#CF4492" stroke-linecap="round" stroke-linejoin="round"/>
</g>
<mask id="mask52_1_123" style="mask-type:luminance" maskUnits="userSpaceOnUse" x="-172" y="0" width="1129" height="636">
<path d="M956.544 0.335205H-171.456V635.335H956.544V0.335205Z" fill="white"/>
</mask>
<g mask="url(#mask52_1_123)">
<path d="M133.417 383.9L139.073 378.106L144.548 372.012" stroke="#CF4492" stroke-linecap="round" stroke-linejoin="round"/>
</g>
<mask id="mask53_1_123" style="mask-type:luminance" maskUnits="userSpaceOnUse" x="-172" y="0" width="1129" height="636">
<path d="M956.544 0.335205H-171.456V635.335H956.544V0.335205Z" fill="white"/>
</mask>
<g mask="url(#mask53_1_123)">
<path d="M124.868 393.054L130.278 387.531L130.574 387.085L133.417 383.9L142.181 374.56L144.639 371.921" stroke="#CF4492" stroke-linecap="round" stroke-linejoin="round"/>
</g>
<mask id="mask54_1_123" style="mask-type:luminance" maskUnits="userSpaceOnUse" x="-172" y="0" width="1129" height="636">
<path d="M956.544 0.335205H-171.456V635.335H956.544V0.335205Z" fill="white"/>
</mask>
<g mask="url(#mask54_1_123)">
<path d="M592.967 326.877L587.57 320.853L586.579 319.679L580.222 312.142L574.108 302.656L568.952 294.658L561.38 286.2L553.89 286.246L546.361 289.971L538.977 307.965L531.534 331.356L523.912 353.98L516.106 375.856L508.069 393.774L499.803 407.198L491.346 418.374L482.711 428.061L473.965 442.887L465.021 455.478L455.879 465.461L446.537 471.798L437.007 475.148L427.298 475.567L418.172 462.249L416.248 459.441L406.394 457.455L396.38 453.536L390.788 444.445L385.658 436.104L375.192 419.284" stroke="#CF4492" stroke-linecap="round" stroke-linejoin="round"/>
</g>
<mask id="mask55_1_123" style="mask-type:luminance" maskUnits="userSpaceOnUse" x="-172" y="0" width="1129" height="636">
<path d="M956.544 0.335205H-171.456V635.335H956.544V0.335205Z" fill="white"/>
</mask>
<g mask="url(#mask55_1_123)">
<path d="M-171.016 521.392L-167.911 520.179L-167.661 520.013L-163.913 518.617L-153.411 515.365L-149.748 516.651L-141.67 513.711L-139.287 512.844L-128.915 508.457L-125.148 510.429L-114.837 505.74L-108.765 502.612L-108.733 502.573L-104.618 500.476L-94.5822 496.158L-84.7692 493.512L-80.8223 496.46L-76.8267 499.585L-72.8047 503.319L-68.7087 506.862L-64.5342 510.162L-60.2795 513.211L-50.2456 509.34L-40.2813 504.461L-30.4492 499.703L-20.714 494.462L-16.1686 496.423L-11.6565 500.381L-7.07934 504.443L2.54216 501.426L7.27271 504.705L16.8704 500.52L26.4399 494.344L35.9715 486.272L45.4696 476.131L51.9433 470.035L55.8719 467.003L58.2407 465.717L58.9175 465.231L65.0536 460.633L69.1329 458.011L74.4821 454.477L79.6894 456.262L85.31 456.876L90.0793 449.848L94.3596 443.472L99.0778 435.554L103.649 427.884L109.135 427.38L112.589 420.59L118.398 409.17L127.464 392.657L130.449 388.152L130.51 387.294L134.77 383.423L136.211 381.806L141.34 376.845L141.685 375.938L142.181 374.56L144.591 371.964L144.815 371.714L150.603 366.01L151.458 365.02L154.184 361.961L155.604 360.516L158.313 356.843L162.49 351.178L162.694 350.837L164.059 348.569L168.616 340.99L174.545 340.345L180.466 342.975L186.479 345.54L192.601 347.471L198.876 346.987L205.275 345.159L209.09 337.256L214.077 326.925L222.776 306.913L231.157 295.426L239.428 283.295L247.629 268.555L255.751 251.263L263.76 233.2L271.511 223.428L279.197 210.789L286.771 198.318L294.172 190.762L299.236 189.885L301.024 189.274L302.103 188.168L308.544 188.049L315.04 191.139L322.144 186.478L329.165 181.131L335.795 181.512L342.759 172.092L344.574 170.018L349.62 164.253L352.922 160.265L356.392 156.075L363.075 147.925L369.598 136.96L370.147 136.143L376.186 128.07L382.602 122.674L389.327 113.468L395.659 114.03L395.718 114.19L398.033 122.677L402.496 138.927L404.038 142.959L408.708 152.1L408.785 152.223L410.762 155.383L413.614 160.108L415.816 163.755L418.014 167.398L425.384 178.29L432.89 191.658L440.532 205.974L434.096 233.394L427.499 252.625L420.752 261.757L428.592 286.854L436.59 310.938L444.72 330.396L447.851 336.53" stroke="#CF4492" stroke-linecap="round" stroke-linejoin="round"/>
</g>
<mask id="mask56_1_123" style="mask-type:luminance" maskUnits="userSpaceOnUse" x="-172" y="0" width="1129" height="636">
<path d="M956.544 0.335205H-171.456V635.335H956.544V0.335205Z" fill="white"/>
</mask>
<g mask="url(#mask56_1_123)">
<path d="M128.654 403.76L135.565 401.718L140.459 397.614L146.121 392.863L149.529 389.501L152.915 386.979L156.5 384.286L161.075 381.932L163.643 380.028L169.869 374.395L173.884 371.341" stroke="#CF4492" stroke-linecap="round" stroke-linejoin="round"/>
</g>
<mask id="mask57_1_123" style="mask-type:luminance" maskUnits="userSpaceOnUse" x="-172" y="0" width="1129" height="636">
<path d="M956.544 0.335205H-171.456V635.335H956.544V0.335205Z" fill="white"/>
</mask>
<g mask="url(#mask57_1_123)">
<path d="M356.426 150.684L363.075 147.925L369.805 146.292L376.614 148.595L383.514 156.528L390.519 170.276L397.649 184.308L404.901 197.541L412.289 214.066L419.817 231.792L427.499 252.625L435.342 275.622L443.339 297.763L451.468 316.467L455.691 327.002" stroke="#CF4492" stroke-linecap="round" stroke-linejoin="round"/>
</g>
<mask id="mask58_1_123" style="mask-type:luminance" maskUnits="userSpaceOnUse" x="-172" y="0" width="1129" height="636">
<path d="M956.544 0.335205H-171.456V635.335H956.544V0.335205Z" fill="white"/>
</mask>
<g mask="url(#mask58_1_123)">
<path d="M336.107 174.672L342.759 172.092L349.484 171.952L356.287 174.632L363.179 180.088" stroke="#CF4492" stroke-linecap="round" stroke-linejoin="round"/>
</g>
<mask id="mask59_1_123" style="mask-type:luminance" maskUnits="userSpaceOnUse" x="-172" y="0" width="1129" height="636">
<path d="M956.544 0.335205H-171.456V635.335H956.544V0.335205Z" fill="white"/>
</mask>
<g mask="url(#mask59_1_123)">
<path d="M322.602 183.277L329.165 181.131L332.076 178.422L336.237 174.255L337.95 172.191L342.822 167.126L343.741 166.066L349.743 158.329L356.392 156.075L363.129 153.054L369.935 155.694L376.831 162.093L383.828 173.285L390.942 186.205L398.184 202.263L391.376 215.137L384.457 235.51L391.822 261.589L399.341 285.884L407.006 304.436L414.807 318.457L422.735 328.755L430.796 338.038L435.931 347.749" stroke="#CF4492" stroke-linecap="round" stroke-linejoin="round"/>
</g>
<mask id="mask60_1_123" style="mask-type:luminance" maskUnits="userSpaceOnUse" x="-172" y="0" width="1129" height="636">
<path d="M956.544 0.335205H-171.456V635.335H956.544V0.335205Z" fill="white"/>
</mask>
<g mask="url(#mask60_1_123)">
<path d="M91.1086 449.922L97.9207 450.411L104.89 450.003L116.38 437.31L123.5 437.093L134.716 427.745L145.701 419.77L156.564 409.942L167.318 397.66L177.982 381.994L187.236 365.507L188.542 363.18L193.48 357.505L198.735 351.465L203.567 348.163L206.103 346.43L206.281 346.308L207.351 345.809L213.908 342.749L214.05 342.719L223.519 340.691L223.749 340.66L231.19 342.273L233.361 342.744L239.299 346.465L240.404 346.993L246.007 347.855L248.834 347.863L249.849 348.022L256.908 345.671" stroke="#CF4492" stroke-linecap="round" stroke-linejoin="round"/>
</g>
<mask id="mask61_1_123" style="mask-type:luminance" maskUnits="userSpaceOnUse" x="-172" y="0" width="1129" height="636">
<path d="M956.544 0.335205H-171.456V635.335H956.544V0.335205Z" fill="white"/>
</mask>
<g mask="url(#mask61_1_123)">
<path d="M930.653 570.297L923.999 571.181L905.043 569.953L898.152 570.875L879.514 569.338L872.384 570.389L865.114 571.464L846.731 569.954L839.232 571.241L821.193 569.801L813.464 571.308L795.768 569.915L787.784 571.204L779.615 572.107L771.279 573.027L753.786 571.929L736.716 570.857L720.034 569.811L703.747 568.788L687.83 567.789L672.275 566.812L657.069 565.857L648.156 566.655L633.247 565.704L618.665 564.667L604.346 561.509L590.341 558.286L576.61 553.628L563.139 547.075L549.916 537.964L536.924 525.202L524.21 511.103L511.807 498.057L499.759 490.537L487.935 480.053L476.356 468.38L465.021 455.479L453.947 443.991L443.109 431.692L432.51 420.257L422.14 409.752L411.991 400.132L402.053 392.405L392.314 387.442" stroke="#CF4492" stroke-linecap="round" stroke-linejoin="round"/>
</g>
<mask id="mask62_1_123" style="mask-type:luminance" maskUnits="userSpaceOnUse" x="-172" y="0" width="1129" height="636">
<path d="M956.544 0.335205H-171.456V635.335H956.544V0.335205Z" fill="white"/>
</mask>
<g mask="url(#mask62_1_123)">
<path d="M937.183 569.43L930.653 570.296L911.812 569.046L905.044 569.953L886.511 568.306L879.514 569.338L861.298 567.374L854.09 568.679L846.731 569.954L828.771 568.207L821.193 569.801L803.559 568.031L795.768 569.915L778.47 568.206L770.441 570.149L753.486 568.743L745.194 569.979L736.716 570.857L728.062 571.753L711.327 570.685L694.979 569.642L679.011 568.623L663.407 567.628L648.156 566.655L639.074 567.468L624.127 566.498L609.513 565.551L595.222 564.624L581.242 563.66L567.48 558.839L553.984 552.109L540.737 542.524L527.747 530.244L515.009 514.849L502.693 508.206L490.625 500.133L478.795 489.874L467.215 478.394L455.879 465.461L444.797 452.571L433.958 439.422L423.36 426.694L412.994 414.021L402.855 403.308L392.93 394.097L383.665 392.382L374.266 387.816L364.589 380.792L355.103 374.577L345.797 369.764L336.322 367.945L327.226 362.406L326.245 361.744L322.358 359.122L318.312 356.391L313.066 352.914L309.57 350.597L306.344 348.609L304.482 347.462L300.085 344.752" stroke="#CF4492" stroke-linecap="round" stroke-linejoin="round"/>
</g>
<mask id="mask63_1_123" style="mask-type:luminance" maskUnits="userSpaceOnUse" x="-172" y="0" width="1129" height="636">
<path d="M956.544 0.335205H-171.456V635.335H956.544V0.335205Z" fill="white"/>
</mask>
<g mask="url(#mask63_1_123)">
<path d="M223.532 340.671L223.565 340.619L226.899 335.427L235.564 317.984L243.969 306.847L252.239 296.425L260.438 283.204L268.553 267.56L276.601 248.031" stroke="#CF4492" stroke-linecap="round" stroke-linejoin="round"/>
</g>
<mask id="mask64_1_123" style="mask-type:luminance" maskUnits="userSpaceOnUse" x="-172" y="0" width="1129" height="636">
<path d="M956.544 0.335205H-171.456V635.335H956.544V0.335205Z" fill="white"/>
</mask>
<g mask="url(#mask64_1_123)">
<path d="M208.643 272.573L214.645 273.622L220.774 272.896L224.193 267.694L228.893 260.545L235.191 256.097" stroke="#CF4492" stroke-linecap="round" stroke-linejoin="round"/>
</g>
<mask id="mask65_1_123" style="mask-type:luminance" maskUnits="userSpaceOnUse" x="-172" y="0" width="1129" height="636">
<path d="M956.544 0.335205H-171.456V635.335H956.544V0.335205Z" fill="white"/>
</mask>
<g mask="url(#mask65_1_123)">
<path d="M270.188 219.848L271.484 218.194L273.773 215.27L277.024 210.344L280.256 205.397L286.771 198.318" stroke="#CF4492" stroke-linecap="round" stroke-linejoin="round"/>
</g>
<mask id="mask66_1_123" style="mask-type:luminance" maskUnits="userSpaceOnUse" x="-172" y="0" width="1129" height="636">
<path d="M956.544 0.335205H-171.456V635.335H956.544V0.335205Z" fill="white"/>
</mask>
<g mask="url(#mask66_1_123)">
<path d="M-171.016 538.481L-165.811 537.701L-165.531 537.659L-165.381 537.635L-155.656 535.917L-150.056 534.814L-141.357 533.917L-139.428 533.764L-137.256 533.418L-135.149 533.244L-133.203 533.003L-129.785 532.59L-127.116 532.231L-123.573 532.283L-119.146 532.673L-118.559 531.965L-117.071 531.228L-116.649 531.186L-116.133 531.124L-109.395 530.116L-99.7375 529.002L-95.7792 528.988L-93.1131 528.881L-88.1009 527.913L-85.9259 527.491L-85.6686 527.475L-80.5315 527.294L-75.8371 526.58L-74.45 525.709L-67.4511 524.497L-65.6895 524.452L-61.7759 524.344L-57.753 524.507L-55.556 524.284L-54.2615 524.163L-52.8911 523.964L-47.4424 523.898L-41.9178 524.148L-36.2884 524.27L-30.5567 524.317L-24.7043 523.998L-18.807 524.809L-12.8427 526.442L-6.74446 527.636L-0.524595 528.703L5.82481 529.505L18.4099 523.245L29.8591 515.425L30.892 514.72L42.9386 504.301L43.2594 504.024L54.3588 492.953L55.4806 491.834L63.5414 482.801L67.5467 478.312L74.2265 470.268L78.8989 464.014L83.0408 459.648L84.4852 457.907L84.9064 457.399L85.4537 456.74L91.1087 449.922L96.3944 443.623L96.7196 443.235L102.565 436.269L106.494 431.793L107.439 430.716L109.135 428.783L110.475 427.257L112.487 424.965L113.469 423.405L117.804 417.003L118.106 416.796L124.784 412.203L131.706 412.411L136.009 407.735L142.56 400.615L153.205 389.775L160.326 389.366L167.318 397.66L174.581 401.358L182.042 402.773L189.611 405.308L197.245 410.981L204.978 418.821L212.833 428.459L220.848 438.502L229.042 448.329L237.388 459.563L245.886 472.761L254.628 483.277L263.62 490.566L272.833 496.085L282.261 500.313L291.922 502.049L302.921 489.174L313.727 474.485L324.327 458.873L324.758 458.108L334.74 440.361L335.024 439.768L344.957 419.037L354.973 395.111L364.71 388.627L374.266 387.816L382.119 397.495L384.138 399.983L391.183 408.727L394.23 412.509L403.688 415.027L412.994 414.021L422.141 409.752L431.115 401.351L439.93 392.482L448.621 388.04L457.123 377.741L465.447 364.561L473.572 347.036L481.579 333.058L489.449 320.094L497.142 304.585L504.626 284.714L510.304 269.577L511.965 265.149L521.138 262.075L522.012 261.784L532.317 263.528L542.825 266.126L553.89 286.246L560.384 296.281L565.141 303.632L570.77 310.695L576.566 317.969L582.268 323.337L588.15 328.875L599.926 337.984L611.983 348.415L614.517 351.26L624.394 362.348L627.107 365.466L637.099 376.95L639.182 380.041L650.243 396.452L643.241 413.585L656.677 431.496L649.551 448.36L642.228 464.144L634.708 478.71L626.982 491.879L619.021 502.598L610.847 511.496L602.624 524.831L594.19 536.887L585.517 546.449L576.61 553.628L567.48 558.839L558.121 561.613L544.603 554.529L531.342 544.64L528.594 541.842L518.334 531.397L505.69 522.21L493.364 515.714L483.817 519.91L471.738 511.7L459.906 501.023L448.332 489.079L437.007 475.148L425.94 460.349L415.121 444.225L406.809 431.924L404.555 428.59L396.357 415.821L394.23 412.509L384.627 409.412L374.867 410.433L364.917 419.294L354.839 419.479L344.957 419.037L335.279 416.504L325.793 413.644L316.532 406.537L307.493 396.44L298.665 384.577L308.714 357.982L304.223 351.097L300.085 344.752L295.853 344.54L291.475 344.322L281.631 356.592L271.427 380.793L279.848 393.773L269.451 415.66L278.041 428.731L286.857 439.456L295.898 447.767L305.154 454.154L314.646 456.492L324.327 458.873L334.224 458.758L344.314 459.449L354.619 457.489L365.129 455.55L375.842 456.332L386.779 457.114L397.154 463.908L406.21 469.515L407.366 470.231L417.415 473.655L427.298 475.567L438.603 489.777L448.332 489.079L457.871 485.269L467.215 478.394L476.356 468.38L485.283 454.821L494.026 440.704L502.646 430.313L511.099 419.454L519.345 405.633L527.347 386.96L535.171 367.751L542.755 344.58L531.534 331.356L520.588 320.576L510.003 319.072L499.631 319.208L491.795 333.105L483.834 349.204L475.736 367.141L467.436 381.099L458.952 392.297L450.275 398.75L441.482 410.756L432.51 420.257L423.36 426.694L414.039 429.639L404.555 428.59L394.919 424.478L392.851 421.452L384.627 409.412L374.562 398.437L364.826 399.65L354.839 419.479L344.635 439.801L343.197 442.42L334.224 458.758L332.841 460.968L323.611 475.706L312.799 490.437L301.78 503.881L290.556 516.077L279.131 526.556L269.324 523.73L257.73 532.34L248.17 528.691L238.838 523.757L229.743 516.881L220.889 508.069L212.275 497.197L203.85 486.643L195.554 478.456L187.451 469.68L179.548 459.971L171.808 450.557L164.165 443.501L156.643 437.69L149.191 434.454L141.839 432.519L134.716 427.745L127.677 424.488L120.642 424.936L109.51 437.517L109.38 437.666L98.2565 450.038L97.9207 450.411L86.2406 463.735L79.4356 463.994L72.5381 469.495L72.2376 469.737L67.0505 474.016L65.6529 475.18L62.9219 476.98L59.2338 479.595L57.9543 480.775L54.1816 483.177L48.6756 487.762L47.1845 489.016L45.244 490.219L42.335 493.459L36.6192 498.939L30.2284 505.066L29.3903 505.743L17.9949 514.955L5.68557 522.12L-0.474376 520.957L-6.52503 519.836L-12.4638 518.675L-18.4325 518.157L-24.2038 519.734L-29.8958 519.71L-35.4847 519.566L-40.3712 521.02L-41.0771 521.23L-49.4128 523.16L-49.8922 523.242L-50.495 523.347L-53.1581 523.91L-55.556 524.284L-57.805 524.512L-62.4254 524.631L-64.9422 524.544L-73.8807 525.687L-76.3694 526.045L-76.8162 526.08L-78.932 526.367L-84.5732 527.274L-85.6686 527.475L-88.3203 527.899L-89.2392 528.02L-93.0579 528.446L-95.5283 528.831L-96.1963 528.861L-97.9145 529.457L-102.391 530.286L-102.949 529.929L-107.586 530.336L-112.046 530.718L-113.886 530.757L-114.33 530.807L-118.547 531.218L-118.858 531.249L-121.943 531.688L-125.585 532.126L-127.395 532.237L-128.859 532.714L-132.496 532.828L-142.883 533.922L-144.435 534.528L-152.212 535.27L-162.061 536.129L-162.514 536.187L-171.016 537.274" stroke="#CF4492" stroke-linecap="round" stroke-linejoin="round"/>
</g>
<mask id="mask67_1_123" style="mask-type:luminance" maskUnits="userSpaceOnUse" x="-172" y="0" width="1129" height="636">
<path d="M956.544 0.335205H-171.456V635.335H956.544V0.335205Z" fill="white"/>
</mask>
<g mask="url(#mask67_1_123)">
<path d="M237.454 343.122L233.466 339.687L226.899 335.427L220.445 330.757L214.077 326.925L207.732 326.273L201.453 326.693L195.33 324.467L189.276 323.097L183.394 318.604" stroke="#CF4492" stroke-linecap="round" stroke-linejoin="round"/>
</g>
<mask id="mask68_1_123" style="mask-type:luminance" maskUnits="userSpaceOnUse" x="-172" y="0" width="1129" height="636">
<path d="M956.544 0.335205H-171.456V635.335H956.544V0.335205Z" fill="white"/>
</mask>
<g mask="url(#mask68_1_123)">
<path d="M175.256 370.26L177.504 365.855L186.479 345.54L195.33 324.467L204 304.919L204.011 304.895L212.519 285.963L220.774 272.896L227.029 270.233L233.912 258.311L235.191 256.097L243.117 247.925L249.492 244.011" stroke="#CF4492" stroke-linecap="round" stroke-linejoin="round"/>
</g>
<mask id="mask69_1_123" style="mask-type:luminance" maskUnits="userSpaceOnUse" x="-172" y="0" width="1129" height="636">
<path d="M956.544 0.335205H-171.456V635.335H956.544V0.335205Z" fill="white"/>
</mask>
<g mask="url(#mask69_1_123)">
<path d="M258.731 344.847L255.43 341.468L248.723 332.047L242.085 325.12L235.564 317.984L229.132 311.771L222.776 306.913L216.473 304.196" stroke="#CF4492" stroke-linecap="round" stroke-linejoin="round"/>
</g>
<mask id="mask70_1_123" style="mask-type:luminance" maskUnits="userSpaceOnUse" x="-172" y="0" width="1129" height="636">
<path d="M956.544 0.335205H-171.456V635.335H956.544V0.335205Z" fill="white"/>
</mask>
<g mask="url(#mask70_1_123)">
<path d="M306.344 348.61L309.356 345.079L317.313 341.189L325.125 341.771L332.86 339.962L340.534 332.681L348.139 318.816L340.932 304.404L348.44 285.03L355.818 267.005L363.091 244.81L356.02 226.719L349.063 211.935L342.192 203.099L335.426 194.923L328.75 188.998L322.144 186.478L315.611 186.038" stroke="#CF4492" stroke-linecap="round" stroke-linejoin="round"/>
</g>
<mask id="mask71_1_123" style="mask-type:luminance" maskUnits="userSpaceOnUse" x="-172" y="0" width="1129" height="636">
<path d="M956.544 0.335205H-171.456V635.335H956.544V0.335205Z" fill="white"/>
</mask>
<g mask="url(#mask71_1_123)">
<path d="M291.157 344.31L292.881 342.569L294.129 341.309L302.285 327.984L310.203 325.191L317.985 325.937L325.691 324.504L333.342 317.628L340.931 304.404L333.894 284.938L327.001 264.632L320.242 244.545L313.609 225.295L307.072 208.873L300.602 197.086L294.171 190.762" stroke="#CF4492" stroke-linecap="round" stroke-linejoin="round"/>
</g>
<mask id="mask72_1_123" style="mask-type:luminance" maskUnits="userSpaceOnUse" x="-172" y="0" width="1129" height="636">
<path d="M956.544 0.335205H-171.456V635.335H956.544V0.335205Z" fill="white"/>
</mask>
<g mask="url(#mask72_1_123)">
<path d="M160.042 381.49L156.523 379.987L150.689 378.184L144.909 377.425L139.051 381.597L130.965 398.386L129.883 400.634L128.24 403.882L128.088 404.183L127.733 404.884" stroke="#CF4492" stroke-linecap="round" stroke-linejoin="round"/>
</g>
<mask id="mask73_1_123" style="mask-type:luminance" maskUnits="userSpaceOnUse" x="-172" y="0" width="1129" height="636">
<path d="M956.544 0.335205H-171.456V635.335H956.544V0.335205Z" fill="white"/>
</mask>
<g mask="url(#mask73_1_123)">
<path d="M-171.002 523.391L-167.383 524.594L-156.67 521.671L-152.959 523.097L-142.315 520.026L-131.772 516.487L-127.888 517.69L-117.371 513.271L-106.957 508.419L-96.8124 505.824L-92.88 509.482L-88.8668 512.84L-78.7418 510.131L-74.6017 513.229L-64.5343 510.162L-54.5435 506.267L-44.6339 501.609L-34.8423 496.861L-25.16 491.871L-20.7141 494.462L-11.2583 492.342L-6.68463 494.514L2.72976 491.718L12.0878 487.732L20.9752 482.816L21.3867 482.589L27.2735 478.625L30.6205 476.37L32.5989 475.194L39.7026 470.971L44.5724 471.823L53.5594 466.742L58.6222 465.315L63.8427 461.708L65.8202 459.933L67.5968 458.484L72.8658 454.209L76.8966 450.143L78.7014 449.016L83.3756 444.188L84.7406 442.573L92.7212 433.541L98.2176 428.907L98.5657 428.351L107.317 414.379L112.86 410.675L121.798 397.488L130.448 388.152L134.711 384.219L141.34 376.845L142.281 376.629L147.832 370.446L153.76 362.996L153.586 362.636L159.123 355.226L164.058 348.569" stroke="#CF4492" stroke-linecap="round" stroke-linejoin="round"/>
</g>
<mask id="mask74_1_123" style="mask-type:luminance" maskUnits="userSpaceOnUse" x="-172" y="0" width="1129" height="636">
<path d="M956.544 0.335205H-171.456V635.335H956.544V0.335205Z" fill="white"/>
</mask>
<g mask="url(#mask74_1_123)">
<path d="M295.853 344.54L294.129 341.309L287.216 324.355L280.374 311.895L273.62 301.811L266.977 292.173L260.438 283.204L253.98 275.882L247.629 268.555L241.382 261.233L235.191 256.097" stroke="#CF4492" stroke-linecap="round" stroke-linejoin="round"/>
</g>
<mask id="mask75_1_123" style="mask-type:luminance" maskUnits="userSpaceOnUse" x="-172" y="0" width="1129" height="636">
<path d="M956.544 0.335205H-171.456V635.335H956.544V0.335205Z" fill="white"/>
</mask>
<g mask="url(#mask75_1_123)">
<path d="M181.001 365.73L177.504 365.855L171.495 363.49L165.577 361.13L159.779 357.708" stroke="#CF4492" stroke-linecap="round" stroke-linejoin="round"/>
</g>
<mask id="mask76_1_123" style="mask-type:luminance" maskUnits="userSpaceOnUse" x="-172" y="0" width="1129" height="636">
<path d="M956.544 0.335205H-171.456V635.335H956.544V0.335205Z" fill="white"/>
</mask>
<g mask="url(#mask76_1_123)">
<path d="M231.19 342.273L233.466 339.687L242.085 325.12L250.521 313.312L258.786 304.085L266.977 292.173L275.089 277.518" stroke="#CF4492" stroke-linecap="round" stroke-linejoin="round"/>
</g>
<mask id="mask77_1_123" style="mask-type:luminance" maskUnits="userSpaceOnUse" x="-172" y="0" width="1129" height="636">
<path d="M956.544 0.335205H-171.456V635.335H956.544V0.335205Z" fill="white"/>
</mask>
<g mask="url(#mask77_1_123)">
<path d="M299.236 189.885L301.024 189.274L308.471 188.014L308.835 187.966L315.611 186.038L322.602 183.277L327.03 181.008L329.518 179.734L334.818 175.171L336.237 174.255L338.162 172.187L342.822 167.126L343.139 166.701L349.743 158.329L356.426 150.684L363.02 143.36L369.527 136.973L369.635 136.967L369.678 136.925L376.186 128.07L382.909 125.048L389.715 126.831L396.618 133.849L403.632 143.986L397.126 160.426L404.261 173.484L411.515 185.02L418.908 201.436L412.289 214.066L405.559 219.74L398.749 240.267L406.274 263.813L413.934 281.245L421.725 294.333L429.689 314.852L437.813 335.725L441.048 342.705" stroke="#CF4492" stroke-linecap="round" stroke-linejoin="round"/>
</g>
<mask id="mask78_1_123" style="mask-type:luminance" maskUnits="userSpaceOnUse" x="-172" y="0" width="1129" height="636">
<path d="M956.544 0.335205H-171.456V635.335H956.544V0.335205Z" fill="white"/>
</mask>
<g mask="url(#mask78_1_123)">
<path d="M387.424 385.578L385.844 383.487L378.057 367.24L385.468 355.472L392.767 341.692L399.95 325.772L392.285 305.704L384.776 279.35L377.424 253.111L370.221 228.698L377.239 212.542L384.15 193.307L377.048 179.009L370.057 169.469L363.167 162.851L356.36 161.133L349.62 164.253L342.966 167.064L338.14 172.187L336.237 174.255L329.518 179.734" stroke="#CF4492" stroke-linecap="round" stroke-linejoin="round"/>
</g>
<mask id="mask79_1_123" style="mask-type:luminance" maskUnits="userSpaceOnUse" x="-172" y="0" width="1129" height="636">
<path d="M956.544 0.335205H-171.456V635.335H956.544V0.335205Z" fill="white"/>
</mask>
<g mask="url(#mask79_1_123)">
<path d="M384.1 384.933L385.844 383.487L393.265 373.461L400.574 359.94L407.756 340.542L414.807 318.457L421.725 294.333L428.592 286.854L435.343 275.622L441.916 252.062L448.327 222.695L440.532 205.974L446.801 172.561" stroke="#CF4492" stroke-linecap="round" stroke-linejoin="round"/>
</g>
<mask id="mask80_1_123" style="mask-type:luminance" maskUnits="userSpaceOnUse" x="-172" y="0" width="1129" height="636">
<path d="M956.544 0.335205H-171.456V635.335H956.544V0.335205Z" fill="white"/>
</mask>
<g mask="url(#mask80_1_123)">
<path d="M271.637 343.251L270.706 341.676L263.865 331.725L257.138 322.338L250.521 313.312L243.969 306.847L237.515 300.919L231.157 295.426L224.921 288.969L218.705 286.118L212.519 285.963L206.426 285.574L200.303 289.871L193.182 303.181L191.875 305.625" stroke="#CF4492" stroke-linecap="round" stroke-linejoin="round"/>
</g>
<mask id="mask81_1_123" style="mask-type:luminance" maskUnits="userSpaceOnUse" x="-172" y="0" width="1129" height="636">
<path d="M956.544 0.335205H-171.456V635.335H956.544V0.335205Z" fill="white"/>
</mask>
<g mask="url(#mask81_1_123)">
<path d="M269.328 342.794L270.706 341.676L279.01 333.765L287.216 324.355L295.369 309.664L303.238 308.524L311.008 307.515L318.682 306.419L326.314 299.059L333.894 284.938L341.378 267.615L334.466 248.107L327.674 230.253L320.982 215.483L328.26 204.554L335.426 194.923L342.504 183.644L349.484 171.952L356.123 161.505L356.359 161.133L363.129 153.054L369.805 146.292L376.403 135.499L382.909 125.048L389.327 113.468" stroke="#CF4492" stroke-linecap="round" stroke-linejoin="round"/>
</g>
<mask id="mask82_1_123" style="mask-type:luminance" maskUnits="userSpaceOnUse" x="-172" y="0" width="1129" height="636">
<path d="M956.544 0.335205H-171.456V635.335H956.544V0.335205Z" fill="white"/>
</mask>
<g mask="url(#mask82_1_123)">
<path d="M347.996 366.78L347.644 365.885L340.192 351.671L332.86 339.962L325.691 324.504L318.682 306.419L311.848 284.553L305.14 263.987L312.752 253.621L320.243 244.545L327.674 230.253L334.989 216.4L342.192 203.099L349.289 189.353L356.287 174.632L363.167 162.851L369.935 155.694L376.614 148.595L383.209 139.24L389.715 126.831L396.132 123.627" stroke="#CF4492" stroke-linecap="round" stroke-linejoin="round"/>
</g>
<mask id="mask83_1_123" style="mask-type:luminance" maskUnits="userSpaceOnUse" x="-172" y="0" width="1129" height="636">
<path d="M956.544 0.335205H-171.456V635.335H956.544V0.335205Z" fill="white"/>
</mask>
<g mask="url(#mask83_1_123)">
<path d="M131.682 401.499L132.226 400.805L134.653 399.185L138.604 396.328L139.149 395.921L142.279 394.155L149.452 389.019L153.14 386.543L156.5 384.286L156.904 383.968L160.042 381.49L164.64 377.859L166.701 376.232L169.672 374.21" stroke="#CF4492" stroke-linecap="round" stroke-linejoin="round"/>
</g>
<mask id="mask84_1_123" style="mask-type:luminance" maskUnits="userSpaceOnUse" x="-172" y="0" width="1129" height="636">
<path d="M956.544 0.335205H-171.456V635.335H956.544V0.335205Z" fill="white"/>
</mask>
<g mask="url(#mask84_1_123)">
<path d="M956.103 558.02L955.24 557.875L937.932 553.322L932.133 553.85L914.984 547.313L898.073 538.887L892.019 539.498L885.92 540.978L869.097 530.184L852.495 516.858L836.271 503.489L829.899 505.633L814.107 494.779L800.474 485.291L798.659 484.031L787.326 476.28L783.572 473.707L776.927 475.892L770.098 476.569L763.374 482.093L756.729 492.224L749.944 502.109L742.973 511.24L735.817 519.54L728.476 526.734L720.977 533.777L713.301 540.327L698.224 535.606L683.451 530.264L668.958 523.653L654.71 514.919L640.72 504.377L626.982 491.879L613.472 476.492L600.301 462.294L587.549 453.153L575.013 441.626L562.726 429.173L550.668 414.87L538.869 400.32L527.347 386.96L516.106 375.856L505.105 365.214L494.345 355.782L483.834 349.204L473.572 347.036L463.531 348.68L453.673 351.807L445.465 364.635L437.091 374.739L428.554 381.611L419.855 383.373L411.025 387.014L402.053 392.405L392.93 394.097L386.595 389.081L383.207 386.398L377.566 383.428L376.202 382.314L374.164 381.63L364.589 380.792L355.055 381.22L345.3 393.347L335.279 416.504L325.057 438.005L314.646 456.492L304.035 473.64L293.241 488.04L282.262 500.313L271.086 511.447L259.731 520.371L248.17 528.691L236.443 534.392L227.144 529.648L218.086 522.983L209.263 514.732L200.684 504.464L192.314 493.585L184.071 485.133L176.049 475.123L168.194 465.442L160.482 456.798L152.92 448.592L145.446 442.719L134.088 446.969L122.16 462.419L111.73 476.601L109.967 478.998L97.6202 493.455L85.1127 506.047L77.8168 505.418L70.7359 502.875L63.8252 499.563L56.8263 501.551L56.7135 501.652L47.96 509.537L44.3399 512.796L44.0711 513.003L34.4276 520.393L31.7018 522.481L31.3538 522.7L19.738 530.03L18.9167 530.548L5.98432 537.05L-0.536913 536.048L-6.91805 534.709L-13.1802 533.421L-19.3243 532.125L-25.3362 530.486L-38.1346 536.462L-44.0222 535.824L-49.7953 535.041L-55.4617 534.208L-61.0268 533.395L-66.487 532.49L-71.8574 531.702L-77.1325 530.887L-82.3187 530.125L-87.4355 529.697L-92.4898 529.661L-97.5523 529.455L-105.054 529.811L-107.663 530.057L-109.854 530.115L-114.284 529.363L-118.487 528.227L-122.583 526.411L-126.577 524.014L-130.575 522.648L-134.569 522.121L-138.482 521.238L-142.315 520.026L-146.068 518.459L-149.748 516.651L-160.324 520.226L-163.913 518.617L-167.293 519.938L-167.786 520.096L-171.016 520.7" stroke="#CF4492" stroke-linecap="round" stroke-linejoin="round"/>
</g>
<mask id="mask85_1_123" style="mask-type:luminance" maskUnits="userSpaceOnUse" x="-172" y="0" width="1129" height="636">
<path d="M956.544 0.335205H-171.456V635.335H956.544V0.335205Z" fill="white"/>
</mask>
<g mask="url(#mask85_1_123)">
<path d="M956.103 563L955.68 563.057L937.835 560.188L920.271 555.72L914.182 556.683L896.813 550.586L890.547 551.987L873.389 544.233L867.018 546.971L850.089 538.118L833.46 527.617L817.112 515.684L801.065 502.161L785.317 487.515L770.098 476.569L755.31 467.916L748.287 467.934L741.651 479.464L734.865 490.66L727.903 501.341L720.765 511.24L713.442 520.387L705.93 528.497L698.224 535.606L690.388 543.477L682.364 550.654L667.532 546.56L652.979 541.019L638.688 533.606L624.646 523.85L610.847 511.496L597.487 504.027L584.375 494.875L571.511 484.103L558.912 472.487L546.565 459.619L534.454 444.769L522.63 431.008L511.099 419.454L499.803 407.199L488.774 397.022L477.988 388.2L467.436 381.099L457.123 377.741L447.026 377.782L437.091 374.739L427.342 372.669L418.793 376.689L410.105 379.62L401.283 384.872L393.229 387.179L392.017 386.926L391.599 386.386" stroke="#CF4492" stroke-linecap="round" stroke-linejoin="round"/>
</g>
<mask id="mask86_1_123" style="mask-type:luminance" maskUnits="userSpaceOnUse" x="-172" y="0" width="1129" height="636">
<path d="M956.544 0.335205H-171.456V635.335H956.544V0.335205Z" fill="white"/>
</mask>
<g mask="url(#mask86_1_123)">
<path d="M324.381 357.979L324.555 357.926L332.435 353.64L340.192 351.671L347.87 346.419L355.485 332.28L348.139 318.816L355.641 301.845L363.04 280.433L370.287 266.934L363.092 244.81L370.221 228.698L363.148 208.837L370.15 194.378L377.048 179.009L383.828 173.285L390.52 170.276L397.126 160.426" stroke="#CF4492" stroke-linecap="round" stroke-linejoin="round"/>
</g>
<mask id="mask87_1_123" style="mask-type:luminance" maskUnits="userSpaceOnUse" x="-172" y="0" width="1129" height="636">
<path d="M956.544 0.335205H-171.456V635.335H956.544V0.335205Z" fill="white"/>
</mask>
<g mask="url(#mask87_1_123)">
<path d="M324.606 358.038L324.555 357.926L323.518 355.529L317.313 341.189L310.203 325.191L303.238 308.524L296.415 291.217L289.762 271.223L283.145 257.997L276.601 248.031L284.467 232.15L292.101 224.709L299.656 215.217L307.072 208.873L314.396 201.991L321.612 196.401L328.75 188.998L335.795 181.512" stroke="#CF4492" stroke-linecap="round" stroke-linejoin="round"/>
</g>
<mask id="mask88_1_123" style="mask-type:luminance" maskUnits="userSpaceOnUse" x="-172" y="0" width="1129" height="636">
<path d="M956.544 0.335205H-171.456V635.335H956.544V0.335205Z" fill="white"/>
</mask>
<g mask="url(#mask88_1_123)">
<path d="M-171.016 523.389L-171.002 523.391L-160.324 520.226L-156.669 521.671L-146.068 518.459L-135.565 514.783L-125.148 510.429L-121.312 512.223L-110.935 507.228L-100.677 502.059L-90.6935 499.314L-86.7708 502.903L-82.7902 506.559L-78.7417 510.131L-68.7087 506.862L-58.7611 502.952L-54.5434 506.267L-50.2456 509.34L-45.8482 511.816L-35.8486 507.055L-25.9707 502.216L-16.1685 496.423L-6.68452 494.514L-2.08439 497.528L7.40226 494.024L16.8431 489.064L26.2319 482.675L35.5441 475.363L40.4773 475.646L46.9616 472.24L49.5895 470.859L54.7342 468.474L59.9301 466.474L66.7025 460.246L68.2693 458.335L72.6615 453.853L76.5399 450.919L78.194 450.085L82.7624 444.386L83.5528 443.772L89.0007 443.076L98.2177 428.907L103.649 427.884L112.861 410.675L118.398 409.17L124.103 404.94L129.883 400.634L135.711 397.108L144.909 377.425L151.24 367.127L153.803 362.958L159.779 357.708L164.741 348.323L165.109 347.626L168.616 340.99L170.286 338.454L177.22 327.925L182.165 320.436L183.305 318.536L184.191 316.647L188.343 310.006L191.875 305.625L197.929 303.944L204 304.919L210.193 304.549L216.473 304.196L224.921 288.969L233.199 275.758L241.382 261.233L249.196 244.64L249.492 244.011L256.352 235.273L256.852 234.063L258.65 231.626L265.072 225.596L268.23 222.047L270.188 219.848L272.693 217.033L279.197 210.789L285.676 212.117L292.101 224.709L298.574 242.793L305.14 263.987" stroke="#CF4492" stroke-linecap="round" stroke-linejoin="round"/>
</g>
<mask id="mask89_1_123" style="mask-type:luminance" maskUnits="userSpaceOnUse" x="-172" y="0" width="1129" height="636">
<path d="M956.544 0.335205H-171.456V635.335H956.544V0.335205Z" fill="white"/>
</mask>
<g mask="url(#mask89_1_123)">
<path d="M265.115 341.96L264.866 342.396L264.423 343.169L261.713 347.898L255.043 359.532L244.712 380.701L234.218 399.817L223.618 414.387L212.833 428.459L201.873 441.479L190.771 452.195L179.548 459.971L168.194 465.442L156.617 471.895L144.812 479.163L132.84 485.168L120.716 489.438L108.267 496.95L107.372 497.837L99.4673 505.679L95.3942 509.719L87.6181 511.63L79.9309 514.996L72.4588 516.486L65.2123 515.856L52.4403 524.86L39.5159 532.136L26.4232 538.061L13.0537 544.95L6.1923 544.227L-0.534273 543.489L-13.8887 548.073L-27.4133 551.499L-41.1282 554.148L-55.0405 556.085L-69.1616 557.498L-83.5034 558.525L-98.0831 559.369L-112.91 560.103" stroke="#CF4492" stroke-linecap="round" stroke-linejoin="round"/>
</g>
<mask id="mask90_1_123" style="mask-type:luminance" maskUnits="userSpaceOnUse" x="-172" y="0" width="1129" height="636">
<path d="M956.544 0.335205H-171.456V635.335H956.544V0.335205Z" fill="white"/>
</mask>
<g mask="url(#mask90_1_123)">
<path d="M526.313 256.133L527.116 253.112L531.176 237.841L539.563 250.506L537.179 254.79L532.317 263.528L525.093 285.712L517.645 303.829L510.003 319.072L502.216 334.735L494.345 355.782L486.266 373.565L477.988 388.2L469.509 399.027L460.85 407.328L452.078 421.398L443.109 431.692L433.958 439.422L424.625 443.359L415.121 444.225L405.457 442.614L396.81 427.734L394.919 424.478L385.134 420.504L375.192 419.284L364.917 419.294" stroke="#CF4492" stroke-linecap="round" stroke-linejoin="round"/>
</g>
<mask id="mask91_1_123" style="mask-type:luminance" maskUnits="userSpaceOnUse" x="-172" y="0" width="1129" height="636">
<path d="M956.544 0.335205H-171.456V635.335H956.544V0.335205Z" fill="white"/>
</mask>
<g mask="url(#mask91_1_123)">
<path d="M313.066 352.914L312.956 352.685L309.356 345.079L302.285 327.984L295.369 309.664L288.524 296.345L281.758 286.198L275.089 277.518L283.145 257.997L290.958 247.027L298.574 242.793L306.157 232.867L313.609 225.295L320.982 215.483" stroke="#CF4492" stroke-linecap="round" stroke-linejoin="round"/>
</g>
<mask id="mask92_1_123" style="mask-type:luminance" maskUnits="userSpaceOnUse" x="-172" y="0" width="1129" height="636">
<path d="M956.544 0.335205H-171.456V635.335H956.544V0.335205Z" fill="white"/>
</mask>
<g mask="url(#mask92_1_123)">
<path d="M198.735 351.465L194.841 354.852L191.271 357.958L185.185 362.56L181.202 365.573L181.001 365.73L179.731 366.733L175.719 369.895L175.256 370.26L174.46 371.392L170.91 375.37L170.463 375.962L160.326 389.366L149.621 401.245L138.796 411.195L137.631 412.589L127.677 424.488L126.23 426.13L117.379 436.176L116.38 437.31L109.38 437.666L102.565 436.269" stroke="#CF4492" stroke-linecap="round" stroke-linejoin="round"/>
</g>
<mask id="mask93_1_123" style="mask-type:luminance" maskUnits="userSpaceOnUse" x="-172" y="0" width="1129" height="636">
<path d="M956.544 0.335205H-171.456V635.335H956.544V0.335205Z" fill="white"/>
</mask>
<g mask="url(#mask93_1_123)">
<path d="M388.218 386.972L392.017 386.926L394.792 385.514L398.47 381.593L406.757 370.79L407.285 370.492L409.593 369.188L415.837 365.658L420.892 363.445L423.525 362.292L423.825 362.161L424.036 362.012L424.186 361.957L425.064 361.619L434.445 358.54L443.972 354.012L452.049 341.124L461.701 335.391L471.546 333.369L481.579 333.058L491.794 333.105L502.216 334.735L512.942 343.589L523.912 353.98L535.171 367.751L546.672 381.25L558.436 395.424L570.464 409.715L582.741 423.259L595.258 435.433L607.969 444.604L621.228 463.218L634.708 478.71L648.443 492.397L662.427 504.026L676.67 513.971L691.155 521.69L705.93 528.497L720.977 533.778L736.372 539.231L743.889 533.933L751.212 527.721L758.351 520.525L765.33 512.969L772.133 504.565L778.787 496.037L785.317 487.515L792.041 485.702L807.507 495.87L823.554 510.352L839.884 523.341L856.504 534.759L873.389 544.233L879.699 542.472L885.92 540.978L902.972 549.371L920.271 555.72L926.255 554.761L943.739 559.351L956.103 561.398" stroke="#CF4492" stroke-linecap="round" stroke-linejoin="round"/>
</g>
<mask id="mask94_1_123" style="mask-type:luminance" maskUnits="userSpaceOnUse" x="-172" y="0" width="1129" height="636">
<path d="M956.544 0.335205H-171.456V635.335H956.544V0.335205Z" fill="white"/>
</mask>
<g mask="url(#mask94_1_123)">
<path d="M355.145 368.818L347.996 366.78L346.99 366.494L345.985 366.208L336.675 364.271L336.419 364.164L327.729 358.855L324.605 358.038L324.433 357.993L324.381 357.979L318.312 356.391L308.714 357.983" stroke="#CF4492" stroke-linecap="round" stroke-linejoin="round"/>
</g>
<mask id="mask95_1_123" style="mask-type:luminance" maskUnits="userSpaceOnUse" x="-172" y="0" width="1129" height="636">
<path d="M956.544 0.335205H-171.456V635.335H956.544V0.335205Z" fill="white"/>
</mask>
<g mask="url(#mask95_1_123)">
<path d="M113.44 423.773L121.595 423.746L132.659 411.428L139.749 410.232" stroke="#CF4492" stroke-linecap="round" stroke-linejoin="round"/>
</g>
<mask id="mask96_1_123" style="mask-type:luminance" maskUnits="userSpaceOnUse" x="-172" y="0" width="1129" height="636">
<path d="M956.544 0.335205H-171.456V635.335H956.544V0.335205Z" fill="white"/>
</mask>
<g mask="url(#mask96_1_123)">
<path d="M205.275 341.283L206.103 342.532" stroke="#CF4492" stroke-linecap="round" stroke-linejoin="round"/>
</g>
</svg>
